<mxfile host="app.diagrams.net" modified="2023-08-21T22:26:36.497Z" agent="Mozilla/5.0 (Windows NT 10.0; Win64; x64) AppleWebKit/537.36 (KHTML, like Gecko) Chrome/115.0.0.0 Safari/537.36 Edg/115.0.1901.203" etag="VqXkIuKDNakO0M04jAAr" version="21.6.8" type="github">
  <diagram name="Page-1" id="7X94bJwKgF3OVI0q3MNL">
    <mxGraphModel dx="1846" dy="573" grid="0" gridSize="10" guides="1" tooltips="1" connect="1" arrows="1" fold="1" page="1" pageScale="1" pageWidth="850" pageHeight="1100" math="0" shadow="0">
      <root>
        <mxCell id="0" />
        <mxCell id="1" parent="0" />
        <mxCell id="Mh07rbQPcgnBI5IKcRmm-26" style="edgeStyle=orthogonalEdgeStyle;rounded=0;orthogonalLoop=1;jettySize=auto;html=1;exitX=0;exitY=0.5;exitDx=0;exitDy=0;entryX=1;entryY=0.5;entryDx=0;entryDy=0;dashed=1;dashPattern=8 8;fillColor=#dae8fc;strokeColor=#6c8ebf;" edge="1" parent="1" source="Mh07rbQPcgnBI5IKcRmm-1" target="Mh07rbQPcgnBI5IKcRmm-8">
          <mxGeometry relative="1" as="geometry">
            <Array as="points">
              <mxPoint x="-8" y="117" />
              <mxPoint x="-8" y="319" />
              <mxPoint x="348" y="319" />
              <mxPoint x="348" y="272" />
            </Array>
          </mxGeometry>
        </mxCell>
        <mxCell id="Mh07rbQPcgnBI5IKcRmm-28" style="edgeStyle=orthogonalEdgeStyle;rounded=0;orthogonalLoop=1;jettySize=auto;html=1;exitX=0;exitY=0.5;exitDx=0;exitDy=0;entryX=1;entryY=0.5;entryDx=0;entryDy=0;fillColor=#dae8fc;strokeColor=#6c8ebf;dashed=1;dashPattern=12 12;" edge="1" parent="1" source="Mh07rbQPcgnBI5IKcRmm-1" target="Mh07rbQPcgnBI5IKcRmm-7">
          <mxGeometry relative="1" as="geometry">
            <Array as="points">
              <mxPoint x="-8" y="117" />
              <mxPoint x="-8" y="351" />
              <mxPoint x="696" y="351" />
              <mxPoint x="696" y="167" />
            </Array>
          </mxGeometry>
        </mxCell>
        <mxCell id="Mh07rbQPcgnBI5IKcRmm-1" value="" style="shape=image;verticalLabelPosition=bottom;labelBackgroundColor=default;verticalAlign=top;aspect=fixed;imageAspect=0;image=data:image/png,iVBORw0KGgoAAAANSUhEUgAAAV8AAADMCAYAAADUMKDYAAAgAElEQVR4AeydBXQWRxeGN4okITS4BIfi7u7uUIrDT6FY8WItRYoVKVZcixd3CcElSJAggZCQEIi7uzz/2f1svwiFQIHA5pzJ7rc7O/LOnXfv3rkzI6D8KQgoCCgIKAh8dASEj56jkqGCgIKAgoCCAAr5KkKgIKAgoCDwCRAQkpKTP0G2SpYKAgoCCgJfNwKS5hsQHM7dR67cf/IZhseuPHB0x8HRFQcHBxwePFAdxXMlKBgoMqDIgFoG7j94yJNH9rg9vYz7s/O4PzuH+1Obzyq4PTmFl+t1khLjVWaHi3aP6Td+FcOmb+THXzZ9VmH4r5v5ccY2fpj0J/0HDKRf397069dPCQoGigwoMqAnA9/3GczoHzqzfHIVds4pyj/zCrNnblH2zC3ymYSibJtuwbFV9YmLDlGT742HDP55HVNW2DBl1QUmLTvHpOWfIIj5qsPEZTZSGWasu8K4RcfpOOAXKlSsTJnSJSlXrpwSFAwUGVBkQE8GSpSqQMPaJZk+IBfnlxrxYJMZtzfk5db6XNpwe0NuPnpYr8rz7hZrLi8z5Pqm0sTHBKnI95LdI4ZO38SM9dfZec6dM/b+HLfzeYvg+y9x5Pfl52mkfVP//ombvhyz82HdUWdmbbRj1spDrF23ng3r1rBu3TolKBgoMqDIgJ4MrFm3ha3rFnJiQycebBDwOdOIsPsLCL49XRXuTCfkzi8fP9jPkPL0v9yfx9tycW9bERJiAnXk+8O0jUxddYmrj0MJiQWvkE8b/MLBIxh22rzkjx33OXPL8+u2ziu1VxBQEHgLBCKJeP4nj7cY4X99HESFQqDzpw3BblL+EY//4vHOUtzZkhb5/nWJCw+C8A6FF75JnzS4B4CzTyLbz7iyYPtdDl92IT4h6S3AV6IoCCgIfK0IxEd64PdgLo82G+F3ZTgEu5HkfeeThmTf+1L+YQ8W83hHce5sKZqG5quQ79cqs0q9FQS+CATiI19/fuTr8xbkO00h3y9CAJVKKAh8rQhoNd8tiuabYdOFYnb4WruPUm8FgYwjkGk136mK5pvxVleeVBBQEPjkCGRa8lXMDp9cdpQCKAgoCLwHAorZ4QN4Sihmh/eQQOVRBYGvFIFMq/kqZoevVGKVaisIfCEIKOSraL5fiCgr1VAQyFwIKOSrkG/mkliltAoCXwgCCvkq5PuFiLJSDQWBzIWAQr4K+WYuiVVKqyDwhSCgkK9Cvl+IKCvVUBDIXAhkWvJV/Hwzl6AppVUQUBDQR0Dx81U0X32JUH4pCCgIfBQEMq3mq/j5fhT5UDJREFAQ+I8QyLTkq5gd/iOJUJJVEFAQ+CgIKGYHxezwUQRNyURBQEFAH4FMq/kqZgf9hlR+KQgoCGQuBBTyVTTfzCWxSmkVBL4QBBTyVcj3CxFlpRoKApkLAYV8FfLNXBKrlFZB4AtBQCFfhXy/EFFWqqEgkLkQyLTkq7iaZS5BU0qrIKAgoI9ApnU1U8hXvyGVXwoCCgKZC4FMS76Kq1nmEjSltAoCCgL6CGRas4NCvvoNqfxSEFAQyFwIKOSrDLhlLolVSqsg8IUgoJCvQr5fiCgr1VAQyFwIKOSrkG/mkliltAoCXwgCCvkq5PuFiLJSDQWBzIWAQr4K+WYuiVVKqyDwhSCgkK9Cvl+IKCvVUBDIXAgo5KuQb+aSWKW0CgJfCAKZlnyVGW5fiAQq1VAQ+EoRUGa4KZrvVyr6SrUVBD4tAormq5Dvp5VAJXcFga8UAUXzVcj3KxV9pdoKAp8WgUyr+SprO3xawVFyVxBQEHg/BBTyVTTf95Mg5WkFAQWBDCGgkK9CvhkSHOUhBQEFgfdDQCHfz4p8k6XWVP1/v4aFD5PK+5birZ5PflNZk0l60+23ykCJlBYCSWld1F5LzkwSpC112ifJJL+xskmfpK4K+X5W5CuKTiIkvsLx1B62zJzDokWLWLhokXQUz9MKCxfMZ+nyFWzae4hjVx7h5J+ITtYyRydKjPHl1YW17PprDrPmzGPR4iVsveyCc1ja3Um5+iEQ8OP1zRPs/n0uSxfOZ+bM9WzZcwenSIj9EMl/VmnEEel1j1tLlrB+7jxm/j6bFavXc945gqCET1NQhXw/N/JNjoPYs2zuVoUCgoDwDiFbkW+p3G4oY5Yf55RjCL7Rn0aoMpJrTNAdzg7LTnlDXZ2txxxgn1tGUlOeeTsE7mL7Wycqa2XMggJV57LTG0LeLoFMFCsc7ytLmCUIWGjqa5KDIf948OQT9ZNMS75f7Ay35HiIvcCugU0orxGStzwaGBljbGyEkL0IJVpNZv6NcDziM0f/iA25z4UJhamfR02+hsZUnnaMI68yR/kzZykduLywL40EgSySjBWlfJOl7PeF0MxZoTeUOgJfu9UsMjGiqLo/5chfjLFHvHCKecNj/+Etxc/3s9R8L7BrUFMqakhXpg2+tSacvSwFv9/P3w6Z47s9Jug2Z34w5VtNnQWBAqP38Y+i+f6H3d+BKwv70VgQyCrhXowKTb9U8hU130X8Jghk08iYQXYG71U03yTvO2hCss996TzswWIe7yjOnS1FSYgJRBCl8JLdI36YtpEv1s9XMjukIF/hGwqUbkSrvoPp068/A/r3o18/TejPgAED6NO1FW2q5ccqq7HaVGGIYFSPAeuu80zbff/F/isf2Ep+h7ja9DN+khDtwfNDM/hz2hAG/W8YP40Zy4Jjj3gYrEtTXjzd1c/n7HMvX2qkPg/y/U9x0yYeS7jbFWzHjmHm0GEMHDKYn6fP5MDDUHw/0dehYnb47DRf0exwUV/zFarRbswJ7qbuPborkc647h9Jz4p5MNS82QWBhhP/5pCPLhpJccRFhRIYGEhgQAABwWGERMWTqBXS1HGDgoL+PW5yIolx0URFhBMWGkxwUCCBgUEEBgYTEhJORGQMMfFvGlVOJjkxgYSEeOLjVSEhMcULIDme2KhwAgLEtAMICIkgPDZRNVKdFE9cdAThocGEiHkHBRMcGk5EVBxxSW/j+5FEUlw00RFhhAYHESTiE6hKIzwqlpiEN5Vdg1kyyQlxxEZFEBEeSnCwWP9ARPyCQ0IJDY8iKiae+LSw1iShPiYnxkn1EdMJ0ZRHbIeQUELCI4kU09GNqqZ4+m1/piTf4pLme8AXPsj3UnIC8THRRIWrMJVkTtsuMcQkpGjfNxU7OYGE2Egiw0II0bZNhIRDgoRnIgnREYQFBEhtFxAQTlhEvDh8rftLTiIpPp4EtXzFJyRIcp9+cySTFB9DTGQYoSHBBKllOihY3Zax8SS8RxsoZofPjnzFAbeUmm9V2ow8xA3eRCIJJITbc3xsNZpb6gatSv5vJX890ckfnme4uKwrZcuWpXjh/BRsOJBmf9ziRVQar3913EoVy1O0UD5t3KdhcaoE5VIb+4qXNptY/utIBnWqQ72qxShdpiKlSzWleeuhTFywh/13gojUFCWFe1lc+DNuL2nNwCbFKVysNFWqVafniktc9NY8AIRd58CiIRS0LkbpYoXJ02ISQ/e9Riq57zWubZjC2C6NaVG+HGUq1aF29zFMWH6aS76o4siSSnWa5IP3pfVsmj6A7xtUpWqxbylbtgmNOo1m5NJD7HfwRWcalFdcfh5JtLMNx1ZNYdzQTtSrU5XixUtQrnwF6rT+ju9GLmHp3nvci9Llrntan4ii3a5ydsNkpo3oRsfa1aharDhlKlamVIsetBz2O3N32nHbX5aOLiHdxX89S0m+H9jsEPGAO3tXs2h0bzo3qSrJXLEaTWjSYxiTl+xk74No3jjWJZeRyCc8ODqf3/o1pWnJb/m2aD3qdJrCjL33cJII8AUP1oyjT4HCVPq2BLmshtF/7HWc0LR9FIEOe9lWvRptS5WhUPEi1G/ejj8u+vNSz7VD3g7h+NrtY9uvg+nVujaVK5ajWLHKVKnVjZ6jl7D0wD2ehWYIeKllMq3m+3WZHarQavh+riZAXBptrZPRaF4saczAwjryrTxiI1tfynrhi50cGFNE50VhUhWzH8/yMFxNqLKopBP3TpCOhkQdKfzuNvbM6keHuuUolVOXt84+nZUc1tWp22koQ9de56qPnj4i5Sh5O/xoRgUj3fNFRG8HedkDT/LXiFq6sudpzbfjNnBk76/MHNGWJuXykVtuHzf+hjzfNqNR999ZfdoZT1nd5DBGPD3IoYV9+K5ZRSoWyI6p7MtBMLDim5I1qNVtGAOXHua8m4w5tS/DOAi6zbXN05jcsza1S1uqbai6ukhYmBWlZI3utP/fKvY8CFZ7FKhKovqfBOHO3N/+O7/1aUCdby2xlJdFc561IIWrtqXjkAWsvu6Fd2o4ZTV90+kHJF+dEELQfR78M5spAzrQoWZ5SlplwUBTdvFobEn+UtWo1X4QPy49iq2LDFN5OlLRgwmw38qK0T3pXLMIhbLJMc1Fgdq96T7tCPdeX+fEnN5U1+ZTj0otT3IPUEl2ON5XlzJbEMihiWNqyQ/7PHCUvQFU7RBOtNNhds0ZytA2NahU0FxfJgQjTKxKU6pmC7qOWcEaG3cC3gRzOvcU8s0Umm812o4+xu10GlF1OYpob1v2DKtEg+waAS1Hn+UXeCD/NHq5n2PTqugILH9TrCdewDEiDfJVxzUxNlTFV8e9H6JRFWKI87Vlz5ByuoGy3GUoW70hzZq3onmzJrRsUpUKBU11ZJS3A9+tviLZoeX9TPJ2mGhNg7yqshsam1Bl2jGOyr0dgm3YNKmlruxFqpO/dgOal9TUN72jIfl7LGfJc2T+zyJzRpPsdY5d46pR2Sy9Z2XXzarTaMphbNxTpBP6mNe7etGjtCauFQXL16Fuk+a0atmSpk0a0rB8HnKb6u5XGLSXHU/krwAgxg0f25/5oYKBuo6W5C5dh+oNm9G8VSuaNWlIs6pFKJRFk44JuTsuY9WVoDdKRvo3PyD5SpkkQ7QLd9cPpo8WC01Z0zlaVKbupD0cd4kjXC6n6vSCbv/Nyu+K8o2GMNM8VqbbjN8YP6w7dQUBEylOWxp1t8FBS74qb4fFpiYUU6dhWaA449Lwdoh7eoC9o6pQMs28UtYjF/lb/sbiuwH4pSp/+siLdxTyzRTk+2bNFxKIcjnLhQXtaV7EQtVxs+ZDqL+EJVe99CXgQ5JvpAuBx8fTskRuKU/D/GWpOO0MNs81mkwcxDlwdW5rumlcyASBPG1+YtKlOMnmpylchsj3rTqHurNUHkzDjc56/qvxQU44/tmcRsVNdIT+b2nm7Eyb+ddwRURd9Rf4ZAeb2wmUkgg8H7kKjWXJjQC81NyanBBC5KVfmdTSWpZPZzpOv4RoEdIYfCKdj3J8bA5K5BLLnIV83w5mykl/adKDlFNcGEkPNzC/dQXySuU0QhAq0GrUAS5Ek4GZgB+YfKN8CD01jP7VVfKg+/JJSVgpfuerR9mx57nho5EbNbChZzg8sZXkGmb0b+2SOzfmOXOSTxDUYx4ZIN/kREi4x8nfulBbm06KsqZVjlwlyDHqOGdcU5RfXY30Dgr5ZgryNceqYAWqNW1Fk2bNaN6sGc20oTktmjelce2KVLK2wEwSjm8o2GwS0065o+VBjQR8QPJNfn0Ku9/N+Ta3SkDNS9ai864g5ON7UraOG9nQp6iMeKpS5H823I6O107rzAj5qgYWTREKtaTjlA3sOHWDW1fPcfXEWhb0KUH1HPKO04rKPVWakIo0gwm+tZ7ZFXNJHVYkClOhLPWGrmLF4ctct7vOxYsXuXJkCb92qSRpQcYStmZU6DKHfzwgXCJXb5yP/MKgHILaRFCRgu22YZvqQ+IFV+a3pKXMLGLVcCRLHSFcYt9YPE4tYp65QB4pn4KUqLWIHamU2ggcN/SgdxFZ3aoOYci5cOLfeR72hyTfRCJfn+BQ20JUNpGVrUBz2k5YzQ4bFZ43rp3nyKqx/NQkt1pWxbgmZC/ehdmnXvNaqz0mEXHlJ6a3yyqTG3NyVujJkFXH2Xf2EjdvXefcobWsGV2HMhaqeEYGmrzfnXyTExKJvz2DaR3zyvLMj3X9kczcc54z5y9x5+YVTmyew5Q2+cihZwLpzLhdjnho+tlbHBXyzQzkK+uw/6pNGFiSp8Ewxm13xFcjAPKJ7R+QfGNfHObURAFrNflmtSpElb4zmbnqCDbXH/PEPxzVeEQEYY+PMm/SBCaPGc7g0Uv4df0dnsUlarXHjJCviEW2Io1pPOccJ1zln/AJRNtMYGpLM1knakiVuoe4qvkMjbDn4aa+VDFUu+aZl8Oy62b2P9eApjvGXPmThS2tMM+iMr9YVutB/xPReEu2Qjccd46jq2bmVJYCWFTpxw+zN/L3yZvcfeaLb5iaUbwucnvdKKZPnsjw//XitxVbOe4M0dLbIJAXh35hoiCQW/0CtSrUmT6zNrPiyGVuPHHHL1xt7gi348mRKUyaMIExwwcweulWNtiHkvhJyfclr879StvsmgkbWTDNUY/Wsw5y7FUKo3SCO4/3Teen+jkokFVFlgaGlhSfeoa94ieF9OfDnVkN6ZpfQ6YChmW60n3JTZ5orF5SvERinh1gZZ+ylNUjw3cn38S4Vzxc0ICOxXR5Zqv0I6O2vCBQXSrV4QUu/wymdYnS5LQqRcVm3enYYQHbLr1GPj6s90gaPxTyzQzkK3VGnUC8kYAtK1P2uxksOmTHbWd/wkQ/K/nfByRfvO2w/7MOlfKl/Gy3xrrhYIYuWcf6AzZcuv2clz6R2s9reXE0qm/GyDcn5ZrMZpc36lFz2Uh18Fn2TJfZh4WmVG12DDvUBPbiAMemliKbmZp8Szbmm98vcenBU4JeOfP06VOePXvG81eBuNvtYPfUGuTIrq5nyWYUWfwYR0krjeD12T+YmkNQmwI07WRIjuIt6DzqDxatP8ShC7dxcPMnWI845EjE431jOUtqC+STa45i2xeuRcMhv0jp7LO5jf1zP/zT+cKV29Hlqad9/gE1X5/z3FzcHANTNZ4G5bBssIFTvhriVb0cteWL88JjUwPalVPbt02yI9Sbz+QzaheOhBv8076yZMPVyHu1CbvYI/us0qYlmssv/Mjk1qIZRoP/u5JvDHFhNuzsVIya2jSy0mqeDedl0/1UtYiA0IvsmPAHv03fzM4HLrzWufFoRDptyGVXMy35ftnTi1P4+Wo/pTSC9aajOLnCEPO8JSnScj6rr3rq3LvEhk+TfC/iGKGxPMqkQx1Xf8DtItoBtzhXws//TO/Clnq+xYJghJFpNrKZW2BhmYPsWQpRsmJPhs47zKGnIYTLstCciuR78V8H3M7pD7gJFajaYgtnwtGvo5hosA27fmkr64w68hU7UMLDpewcJug+HY1MMDDLSU6rXOTOnYtcudQhd25yfZODHNmNMdC0Q546WI08w1Uf1TB5hNNRDvY1p4S5vF0MMDQyJUs2c8wtLLGwyE6eovVo3m8JK48/5lUqswTEutliO6UEhVN6jBiZYJrNDHOLHFjmsCCLdS0q9ZrFgoP3eC6bhKLB8u2PKck3436+CU82cnBUFrKZqsm0SCOsZt7kcXAaFRULGOsP12fQq6HaDm6QDSHLcEZvdiZWpC+/o6xqUI4yEhFmQxAaMWDRNR7IP3DkFX29k+U/1pS1t0i+56QBN5Vkpzfg5o2TVMQQYl13Mb9yUYpLeYpfTW0YueEBT+X5SOfJkBxHTEQUkRHRxCQkpu0nn+o5/QtfpZ+vize4R4L4jhWJIOINQXyh+UeCm3ciL9LRkt0DwNknke1nXFmw/S6HL7sQn1Hv6zRnuBWhUvMxzNh+iL937mbv7l3s2qUOu3ezZ+dudvw1jyVjmtOgsKmOCA0KUmrcRta4yDpAmuSbvrfD8elV0CffCzryJZHkgMdcXf4/+pSRax1yEtKcm2FVrAaV6nVj4LwDHHgmdgldT8qY5tuQWm2PcUvsy/pyDcHn2PVrO1ln1JGvGDXu/gL+/p+GfDWzAjVl/bdjMYQe+znrIUqOmLkXfjcXMa970RTab+p0jHMUp0yNptTvM49lx59Ln7NaFJICCHiygZWDa1BKq32lTkPS7swKU7x6Mxp0ncTcgw44akb/VCV6y/8pyTfjfr6R9xeyfbBANo1HR9mW5FrzDPfwdAoWHwLP1tC/ZVl1G4kEO4RhS58RKk6N8NjNH3XKUERLhO0YtvKO5LebZuUCT7JmXHNZe7+D5iuxcwAxzzbyS1lr9YJWORCEHozf/oQXaWb4/he/Ms03mRd+yXjEgKPdXU4s38jSlVtZuGIri1amDJtYtHIbcxdd4Z/z/jwOBRffJFzTIOAPS75pzXCrSceJ59N4A8sFIAHcj7NrTB1qyzwLhHx9abvoCdqv1JTkW6AZRSZf4mlkGpqv+yGO/VIjBfnKNF9N9qE3ubF9KmO6NKJV3cqULZGLHCk/neVkYt6YplNOc9c/UTsDKWOabzPqtD8j8+XUFEjUfM+lq/mKseIeLGS7lnwFjHLmJ3+d9rTv3J3e3/Wge/fuaYeObWg3eCoD19/DUc+GEIaHzSqWj+5Mi8a1qFm+CIUsTXQvQnn9pfMc5Ok0n8UOsYToTXmLJNxuB9sm9qdrw1rUrVKUErmyoBrsS5uIzRpPY/LpUILl3+EyKNI/TUm+Gdd8oxyWsWNoCvJdnRHydUqDfEVibsaQFTdxTK8ygSdZnYp831LzlZNvOWsKSu1jjiB04KdtD0ljGCC9UrzT9Uyr+WbI7OAHL3xjeR31kN0ju9Fa9Ak0NkEwMcE4VRAwNhZHUIfQc8o9biSBs18Sbp+EfHWuZnr9NI2mjrkwjiltRWHVdNTWNOh0hseqlYJTmx3yNMF67HmepGV2cN7D3gnl/518NeVICsb39lH2rBxJ/5YVKGtmQW5L8ZM7G9lMjfQc7a2KdGfqhQjt53fGyLcptdufwl4ziKYph3h8A/lKZgeHJewcqtF8BYwrtqPFDu939tWUKe/q3JNI8r7J5d0LmDmwJQ3KFMQypyU5cphjltUEE/XgqTTpIE8j8oy/yEOt37S8AkDAA24dX8iqke1oUdYaM9HsYGmBRTZTTGWTUQShJkW67eFqbKJ6QkGKdNL9+eHIN8FpLwfHW5PNVO0T/kHNDqYIQmV6LTjPrTR0BKl6H8rsUKmo2g84C4JQh/+tvY1DimETFZxJxEdFEBUeoZoynnIqfLqY625kWvJ99xlu8DIYnr9+xZlFDWhWvzb5O6xni+19Tt94wplLDpzSCw+k38dtX3HtcSROgSJxJ6UZPqzmm9b0Yh35pjXDTdeckHBjItM7Z9cn345neKQhX9d/ODKloux+bQq3PMidGPXnofYbGMKvz2RFBwFjTUfXTrKQz3CT5y5aEiKJDPHG090Fp/u3uWlziP3LhzKkubXMtUjArHBVOm5z47F64diMmR3eRL7p23ylvuS0k2MT8mOWXU0WeRtSaJwdDrLZTilqlsbPZP1JG9oYySSEBxLg9RpXp4fcu3GS07v+ZE6/BtTPJ2CosR0LVclbbgcnvCNlU5e1iUgnyVGBhPi85vXzxzy0s8Hm0HpWDG9Mi6Kal6t4LEyhKrPY+SqBdzMBpyTfjJsd8LTl8vymGP6HA27lR29hm7sOH7miH3PuR6a0VLelpHi8g9lBEucY4kJt2FyvGFW1iosJLeeexVa2uLEuTx/u/DmeleOns2TvPa55RqTbhroS659lWrNDRsj3VXg8z9yusKqKMVW+bUf9LVG4xaoGa0ISIDiNEJIEPmGf2uZbg44Tzknaq37zpfgV8Zhrc9rQUa9jdqLBiIuIs3Ql0vE5he3cJjLytcKq+HDm34nU77gRd9g/rRl1c8jIQiJf0ewgqh/JhDid5cSsUcyaMp4RoyexYMUerqeaZ5kkzXq6tXcKw8sLWKltgmaFitJuvQuP1D48H5N8JeUp8DL3lrelqJFmdN4Sk/I9Gb7jLs6aAXo1vBFPjnBsyRhmTJ/KmBGDmb1sAwcck1UzssIdcTi+klETpjD2p1GMnbuFRWf9Uq9ZEBdGxO1tbB5dDxMjDUlUIlf5jez3FS3Wr3h5dhOzR01gyvgxjPp5Eyv2pjFtNSmCGJf9/DO5JWW1s7kKUajoDLa5J5DKLTiFiOj/TEm+pajSegPnZC9g/fhv+JXwDOcj46ifXTPJIStZLBvRYd4xTnmmSDDJA8dDs5jQ2FI7XdjAIAfWP59il9bA6s3tGfXpIjehlelKj6W31ANkmrIkEPvsAMv7laWsdman+EJ6V/KFhDh37KfVo516lqX49WhefRRjt7/U7xuEE3J3FZPqFqGMRV5KVG9Ny67dmPPPLRzeoQG+LvKNiOGZqy2LS2Sjff0hDL8Erj5JeAYkp6nRpqfpprz+32u+pajddR7rrj3iqt1N7G/ZYWenCTe5ZW+P3eVDHFszkoHlc+kP+lQYRs/NLjqbb4w9dzf0181vFycXmFtTZcRm/jp2k0eP7nLj0nGOL+pJ65Ki3UumYemRL/hdXcQfZTXTOQUE8yp0WvNcb8EXTReJctzJhtYC1uppvDlLNGH8SV9eqjXNj0m+qsE5L3zPL2BISXPtzgaiKcCs3ggmrD2N3T0HCeN71/ewZlRt6mq0f3Ht2xp9mXEbAkROCb/CiVmNZTgVwrDVKg65haUeBIyz59bqXpiaqAcnc9ShxNBTXJWcoR9ht7ibbAH9bzCvMoc1TqHSwLAGR9XRlSd/j6KFIJBdap+qlGzyNxeCE99R+0pJvgUoUX0M80/dxvamPff05Ewjb+rjjWtcv/OAW86Bave5OMKdD7CheX6+NZbJTOFWdJy6iX1X70p43re/zpkNk5jYIi/mWtkyIXuJTsw88YpX2vG5JMKujGF6e7kJLQdWVfoyfMM5jl2+yYOH97h6YhObxtSgrKVoJhAQtF8V706+0iSLW9OZ0jGPrD0LUrTROOYdvs6l6zd56HCXK0fW8NewapSw0B+obTD9IGf89FvqTb++KvJ1D+BpskkAACAASURBVAEn92dsH2TFdwP6M+CY6KWQhGfg506+BhgaGmNsaoppusEEExMjjAwN9GyrRQcuZ9lDuQi44nxwMp01kwKkDiC6RYl2b036JpgY69toJcHWmh3UvgUBd3He2J5GBdVmjqwFEOr8yswTbvqEEe/I3U0j6fGNZlGT0lg3Xsoet1jt0oUfk3w1vh/RPre5PLk0NfLpyMLA0Eiy/+twNpE0Ve0ynebtaD7nkjQIo+KJaDxurGRmDYECatLJnqcWXZdf55qexhdD8JU/WfxdEYyNVO5YWap1o/suD/yjVJph0L1tbOlkRiH1CyprgXLUnX6KE876vhxxj7ezcXgN3XoHpbrRZMlDfN/ZwyYl+RpgYCDWXyMHbziKcpO7AmYDD3LCVb0AZYQnngcH07PSNzryMjDEyNgEE5ncmpgYYyyX0wJ1KPXzJW6pXfe00hp7hZNTOkgvJNWAowFi+xiZmGrTMzE2xsRIIJeVFRYWooeCpi3fnXxJFleuus2x6R2oJgjqfiTmaayPiTg+ZGSocz00zoVQbhKLL7mndnnUVib1yVdEvsm4BoCLdzjP7Zbza88htGu8mYNeSKtdiR1SdDtLGT4LVzPt21wjWG95LDecSUcc9VbzEkUg7NlJ9vTMr57Gmn5aFuVq0ahLJxobGmIlCrWWfDU230RifW5xZmYLmllp0snJN6VqULtxS1o0b0bz5s1oVr8KFQubaVeG+qbWFGbYhOEbq/sc/RTkS1IYCe67+atvOe3WMrrOq6mP/FiBuuMOcvK13ElO9FN0wevkdH6qlkVbR8N85ShXqzHNWrSkWbOmtGhSn9rlCpBXoxVaNqP1gjPYx4BqPVrR+dgDnxuL+a15ft2XiWVJSlVvSJMWLaVp5c2bNaJ+laIU1i4EVIOaP+/HJki31kTqbp7elRTk+65yZlIEoedeDrtoZiEkQ6QL9u+ysI55DepPPYSNV7zu60xW3NA721jdLb9aw5e3hfy8Nj+MGkrvHg31ybfrx1hYR5wE04dB2x15/I7LS35F5JuEiy+4+ol+vQHsHzaUTkJe6g/6lQE/z2Xi5JmMmSQPvzJm0iyGjTjE2sOeOER8LFcz1QaaW3pUp7D2LS4XtDedZ8fAIj9Fvq1Ji35TGL/jKQ4hOoLTynRsAP7Xl/D7iDbUKm5FbnmnM7LEqkRNqrX8kYXbN7Ljr/F0EwSVq5NpdcyHn8U+WEO+qhST3c5wetko+jerSu2iFml3FFMrClZtTcMOv7D44FNpYRptecQZSsH2nB1uTkUNOQkCRcceYH/KJSVH1pZ1sGp82/AoN9Py8w08yZbx9fXiFq9xQJpeLOmRWlhi8L6xk02TutOlYTnKFfhGt82MGv8suYpTtmFvOk3YydEnYVr3OJGCtckkveLhvgXMHtiExlULUDhNVztDzAtWpFarPvRdco5TbhodHHQDOX68OL2KJSM60bxacYrprU+ha/ssuctQrXVvOkw7wIHHGV36/B7nZ3aRDTDp0n/zS0gTLy9C510ceC4bkRIbNeAO9jumM/a7lrSqWoZi36RYUjJLTvKVqUbNlt8zeP4Rzsg1ex0QKvFI9MP7xkrmDm1Pk/IFsJKZfwSzghRvNJg+vx3h2c09/Dm5g6y9W9Poe9VAs8pBQrWk5BxBIKemX2XNydB9nmksKRlKpOM+tk7vz4BmlSmbX6c4aHAx/qYA+cvXpm7nyUxbfZ37YZqV7rQSIRfvNM+/KvJ9IbmaxeAWbM/Osd/TQWyIHBZktbDAzDxlyIKZeU4EYTi9f7n/cV3N4uw4+nMf2lhYUbx4cYoWLy4dxfM0Q5HCFClbieItvqftwAnM2XCWK+4yTUgu0DLZSPK4zNXV4xjVuibflixOntJVqNphCMPn7+HQU5Giggm7spSxZUpROacZZrX60GCeHY6axdT1RCqc0EeH2PfHRMZ9V4P6VQpQ2LoYRaytqVy/Md1G/8aCnTe4FYCavGQFEV3Fwhyxm9eAnjVzYWmVjxKlStN+sS3n5IuyhV7ln/n9scqTnyJF8pLTrDdd/3dJ8uRI5YEUepWjSwaTJ39BbdwOfWwln+BUccV6JL7Gw3Y1a6YMo1etGlQrUEDCulzdVnT/aTlrTzyXbUYqL7v8HBJCHmK35zcWjehM52rlKVegEMVKlKRQlYY06DqEnxfvYv+dMN3qavK2keMZ6oTjkT9ZPLkvPWpWomKBAhQpVgrrwvVo0GQQY2ZvZbfda9k6svrlkCeV/vlTbq8bz/e581G2SFEKpydfaV0vmIsClZtTevwpbF+lNWcRCLXHbscy5g3tTpu65SQ8C5SvQ50ePzBhxW72341MPTCZXmGj7nFt72zGdmpAgyLFKFKhNnUGzmXJyZeqdRdCT7N+jNz23oFmP52XJkioxk8jCbi/gw1lStMobwEscuekcp3GzDnnh6ueVUf2QiUEr6u72Di5L12bVKFMqeIUyF+WclVa0XHoZGls4EqKlczepRW+IvLVuJq5cXxWNRrUq0OB3vs5aP8SO0cv7B684nrKcP81V+8Gcs8lluf+6duFP+iAmyh8ybFEhwTi7+GJl5eXXvD29tb+lp97efvg5ReIf1AIYRExxKYYsU9TphNjiY0IIdjfFzEtT28ffPyDCA6LIlpyKE4iKTacYG9vfDw88PANxDcsNp3Vs8QtV6KJErd5CfDF10dXbh8/PwKCQwmLipW29EmrLMlJ8cSG+RLg64mHp6dUHv/wGGLk9UiKJSosEE9PERdPPD0CCQiKldaMSCX0SbFEhwfhKeGniusfGCP5waaKKxUokcSYCCJCggj09cVHjbu3rz8BweFERCfINN60aqC+Jm5nFBVKeHAAAT4+qnTENvPxwy8giBBxK6G49FzUZOkmJRAfHU54SCABvup0vMS298XPT2yjSKLiEtNxdZOl88bTeOIiQggU8RbrK5OtN8md6p6nVCfvENV2QGlmkxxHXGQ4YUEB+Puq5dbHF18ZDmm3RdpXxTySYkIJ8fXG28cXn8BQxD0ApNiv97BsmGyh/aIDaLvsgcz7I5mkuEgivL3x8/SSZMzH14+wmESd2SdVJZJIjI0iUmwDPx+8vUWZFvP2l/pZiNjPtDajVA//64WvinxfhcfxzPUiy8uZUrNsF5rvjOFFJIQmQkA0+KcRAmLBK0T0ivhI04v1Jt3+a/t9ugjp9493L9Mb00rWfpL/SzS9fN8lrt6DX9GPN2L0jjgkp6fBv0U66ZUj5PZMts1pTdee/eg3YAC9esxg7rp7pN7Q+jUuG3rRr6JsinvtMbTe+1qXe3qZSDHk2q7ukf/67EOQb6LXffC/D8H2JPvodiHW7EYsPyZ62kPIQ4h6DD724HWbRNnOxWLct9q9+N1nuMGriFieuV5gSWlTOjQZxohr8MovCa9A0R6c9gSKlG5laf3+4Jrvf93qSvoKApkAgcADDelfQWNfVh2N83Vm0Ip/2L7/EKeOn+DIwV3sXTeJ4Q2sKCa3B3ddyBg7+WfT51fh95vhZi9t8Y7vBYJfXMP76QPwuwt+d1IQ6m2SfO6S7P8IYh6T6GiLt+0h/D1uESPGT0m+vv/J1vHwMgSev3rBP2OK0HdQP/rtjuSJZxKvA8WBuOR0wr+TskK+n59gKyXK/Agk2y9kTi/5Ivz6RKwZ/NI/im58uWj/yyHOyTYY/RzReD/N966KfEN2cefUFnatPEHwi1vgf5dkOaH62Eu/Ez2ukxR4jmsL5rC26zhsn1/FP9QhNfn6/Cfkm4Q04OYTj9er4ywd0pwOlTrz5x2kGTPiIExYcuogDiX4RXzEGW6fo5QoZVIQ+CQIOHFz4yA6qRfr1yfZ9Ik4R6dlbLqu3Urgk5T8bTL9IOSbeIQrE9sxJmd5Juy8yEuvp9JAZ6K3PQm+DyHRC8KuwIn/MaJtIQShDNb5J3PwyTXCox5+LPIVNd94nF89xmbGCLqqXYHy1u1H8+5D6d1nIN17yUNfuvcaTNt2G5m/zY170R/J1extWk2JoyDwlSAQ523PDXFX6EFtaVylBNaWgm4zVo3LmGCOQd7ylG/YjUFTl7Hlhj/+Oi++zxap9yNftdkh6hZhO0azsX4+TMo2of+KPbgH+UDicwg4yoVt0/ihS016lRf99Eth3ngsG5YdxNntJvFB9z4e+bqHRePkdoUNLVrSqUApilevRZkSojtUEQoWLkoha3koSCHrElhkn8iQ3x9xMwGcfT/CqmafragoBVMQ+LgI6MbwEol0vsDZvxfz+7g+DOtZm6aN6lCrRk3qNG5Ovd6j6TdtDetPO+GsXmJZLKnu+Y9b7rfN7f3IVzW4luj7BALO4XtkNM2KGWPRoCcD/9zF/ZPreb7+exoUtpJ8n3OVKkPBn1ew64m4xJYj+NqTnNEBt3dfWEdju03A2TMWp9cxPPP49/D0dRzPvRJx8dM8n/qo2HzfVtyUeAoCGUFA9HhJIikxgYSEeOLj44iLk4X4eOLF3SQSkzKwg3NGyvNhnvkQ5Ct5KPg/BPdzYDuBjjULS2RramKsXr60CuVqLeTiqxuEBt4Frzv6NmG5ffhtvR0yRL4+InGqBt7E9S/EBcbFlb5ELxTxmFYQYRbnFLh7JaS7+I5Cvh9GGJVUFAS+JgQ+FPkm+t4HP9GEcB7P3T/yXQVx/WOBfD0msGTdEdyvXyE67DGEPgDflN4Q+u5pb+VqliHyFd3J/JKkmUqPbM6zZ+I0xk/6jVFTFzJlxiJ++3UO436eyeiJc5jw6zymz1/KmLFH2XDIgwcfa3rx1yR9Sl0VBL5iBDJCvoledyH0CcQ5Q8xzdXCC2BeQJE4HvUPEqamM716Dat8NY+6h00TEeKjixTpD3FOIeiD5+SZ76RPvW/v5Zoh8penF8XhE2LHtxw40EZfkM7cgi3YeflaymllgmSMLJlpj/g98N8MBu4+1k8VXLIxK1RUEviYEMkK+yX52RD0+jdfVAzy/cQinG4eko3guhmf2toTc2orLuh7kF9dsKd+GYRuPSfde3jrI06sncL1zmXDP2ySKdt+PZXZwCwQXzyju7qhF+y41ydvzIAfveXBn50j6/9QP00kXOGrngbvzGdZN/JGaQjt+WubAaS94+YZlJxWzw9fUZZS6Kgh8GATejXzvkexzC2KOYje8Jf3EdaWzZsE4axbpKJ6rQlZpu6ps6u2qJPc8I9W9bFlF97zKlK4wj1NPrxMVmUE/34zMcHMPS8bp5X22tchKwzodafx3Aq7iAl2PNjBlwQyEKQ+4qXbMdjp/mNXfdaH+ejv+eAoRQaS5eaY4400h3w8jjEoqCgJfEwLvNsNNnD58G4Iv4rFvMUcn/MgfM8awYMYY6Sieq8JPLJwxjsVzJrNuya9sWPgzK2dp7o1gzqTZrP1zHy5uN4lLy9Xsv5rh9ioygmcvjjHX0pzWFYYy/CK4+ED8iyP8PvV38jbYxT7HCF4kgt+rZzieGE6hLn/Ra4WztOOxSLT/+e7FX5P0KXVVEPjACLxxCYcPnNf7Jvdumq/atczzHkQ6SdtOkfwSKSSJ666+AsSJJaIrgXhMK4iapbjehSP42ZMsmh4+jtlBXNshmmeuNiwpnoM21Qcx6BQ890kmPPwGW0YvoIPpYjbdC+V+PPgGevP87m4GWPzCiEG2nE/+SLsXv2+LfvDnk0gS3XtiY4iJjiQyMoKICFWIjIwiKjqGmLh4EjKwe+sHL6qS4FeIQDKIK8DFJ0oymJkAyAj5yhfK0Z772JPkdYt49ytEvLhMqPNlwlwuE5oqXCLU+SrhL+yIEwfb0liI5z/ydgD3UNHs4MCGLub07DOQYefF1cqSCeUZ+yfP5wdhNMsvhXAjEvxDfHFxOMAP2aYzqp8NNnyt5BuK953jHFrzOxMHd6RjkwrUrF6Z8uXqUq/pd/QdP5tZm45j6xymvzbr5+7hnpl6qVLWVAjoabghN9h/4i7nbqfavTXVc5/ThQ9BvoledyDqOYkvj/Jodnm6VbLAzCIX+fPmTiNkJ7tJXWrW+YNzz64TFfHgY81wS8YtGJw9/Lj6Zw06NOlB+UGu3A9HWoz52rqZzK1uzcD9/pwR9w6K88bNdhIVS02n20Q77iUgTbRwS2P1sy/G5qtHmN68ur6Vtb8O4H+dG1O3fFHyZEs5n94Q41zWWFdpSNNuPzJh3i52XvLBR7NauV4P+ZzEXinLl4BAvO8z7PfMZ96PHRC3lZ9l+5mvpJMC9A9BvgQ8h5dbuLOuFV1yW1OvQWN6DO/DqEE9GDmoByP0QicG9RzNLz9v4+ELO2KD738s8k2S9nB74R2H5621jGrRnQIFJjLjijd2ofDi/t8c+LMQ7cdsZebWJ5zdt521Y7tQbOgmhh/y5FUE0iSLr8HmGx/iysszi/ilTQFya13uUhJvWr8LU7TdApZefolPCkFTfioIfDAEkuIh4BqX1gymVxn1DsLtF/LjDdnc4g+W2X+X0Ach30gn/Pb2YEk9AQOLCSw+LG6q5Q2JrpCQMrhB0nOIffipphcn8SoMHhwew4x+xggdtjLvXDj+xPPo/l7m5LWitEQ4RTE2ns/vZ314EA+v0tB4NWv7fjGaryhnIU9x2jWQTiVzqfZteyfyVRFyge+W8uf1zNUR/rsupqT8oRFIjAni1c5K9K0lUwB6LmPM9XS2M/rQBfhA6b0f+aqXlEw8w+0JzRlrbEm73/dw5fE9CFHd09qEUwyqven6f2Tz1azJkIxrMLx8+ZSb1w+z5oQrF5/F8CoKXngHY7fnGDvWbmXJulOs+duN268SeRkh2oY1z6c+fjnkG47HmWVMKWmhv7OxcWmq9vyZuZsOcfTkWU6dOo3NWRuO79/M2jkD6FfditzyhayFvFTvt17aUTdGnLOd4u+drBEpIyenkWCK9NP/qUrsrXZd0DPBqOagp7ykzSdlGbU39E/eFC3dtPWTSOdXsmqO/JsySOfJD3s5jQIkv+8uEZo0k/W2cYo+XIq+1WTkO2AL00UnAPlfouZZ+cXP5/yDkG/yca4Pb8RI4Rt6LT/MnecOEKRa8exNJJvevbci33f385WRpk88LwLBOw5pT6/wZAiMhIBI8EkCcS9YcQ18MfgEiaSc/hZCX5Sfb8A+9v9cnYJabdcIk7x1qT1qAxuveZKWXpEUcIeHByYxonFp8hlZUbRSPSpU7cqIOQe4GASx6XJlGMFuDjy4fILDe/9m/YZNrF+/h737znL5jgvOQeq9uaS+ot+JkhOiCHf6B9tDf7Fy1Vo2b97Cofv++IoNluSLh8MVLhzdwfbNG9i0ZR97T9lxzzMixdbk8ST4OvDA9jC7t25k/Zbt7DtxiYsOvgSluRyhWJEQvC6d4szKFazfuI2/Vl7jhlOUJCfJAU64XD/F0V1bWbdxExt27ueAzR0evo6U5Zs2Eelql0SMrxNO9y5ydv8udq5dx6aNG9mx/wCnrj7gkXsEens96vGIWL4AXp89yumVK1m3cQtrV5/kytNwVf4Jfng73uDyid3s+XsDmzbuYud+Gy45vMZDXORE86crjOaK+phAfIATD6+c4OT+rWzbtJaNW7ez96gtF248wzUoQdpLT/OQXjJhLrjdOsimTZtY/9cqVh25zCH3BFXUaG/c79pie2wvf2/ZyOqtu9hx6ipXHnoQqBk70CQa58WrR1dZvepPFgzOT60iMvKt0YvmU5ezZ9su1q+9jb1L2Buw0iT4aY/v5uebciqwWvNNuMSDGS0Ymy8rFX//hwtPHkDYe2i+/42fr4x8fcEtMIkXXhE8evCam/fcufrIj1su0Tj5JuLk5oeDkw/3Xifh7JuM2xtWNPuSyNd970DGyj/lDCtQ8buNnPBXvaTSF1UP7m9fwqxOI5i9+TQnHYMJUPetVM8kx5MY5MKLS3+zdcZA+jcqQV5p5o3YkUzIZlGJht0nMXHTFS67+BOelJqwEiI8cV5rRatius5XYux+dt1zx//yMv4Y2JjahTT3LMhaui09Fx7j1MtE9csgmQjnC5xb2p8B1fJrzSvmJepTt/+fbLzoil+SZitwTQ1EJniETdc6NNS+nPozYO51nibc5+K6cUxuWYZC4pRO6X4OrCp1ZeDvBznsFI6fOJkn3b9EkmIDee1wliMrxjH2+7pUyGGoTkdAyGFF6Wb9+N/sfRy964lnpL4WqEpWfGPc4mijctTRlq863Wae41pgAE5nV/HniNY0KmGMqXTfEMGyCvX6zWHhkcc4+kfraZbyoibHRRLy/AInV/3EoCbFKWmpqaNA1sLVqdNmFNPWnsfGLYagtD51nLeya6S1rj6lOlJg7UNeez/B5fhiZn5XnRqFs6rvGyCUbkrjwQtYffoZrqImpPkLsWHvtKa6dAQDDNR4G2rrLJZtFOO3Plftaqx59jM8vp/mq17PN8IB3z0D+aObJcKgmayzvQjiIjriFkG+6YXU04o1mvAbNd+rtx/zw7SNZGhtB8lum4yLPwSRjLP9HmZbWlBSbLiSnSg34RK2XqHYLO/KpL4N6H0okTseEByWjMsXbXYQmdIRmyEtaSsTYvNGwxh+2JeI9IhUK9CJxEeFExYQTFikajdbfYVXpge93s2OUU2pbZKV3BbZyWJqhF7HMTDBxDQLFlb5yV9vFDMPP5PcxrVZAQmRXrzYVJQuFXUkULP3j/Tv15NOJbJgZWaKoZYEBQRDA4TsdWgwdBc2QUkE3lrJqr4VKWBsjJmxjuQMjEwwNjTAvP44huxw123vLmUuku8TLvRtRmsJI3HlqKH06T+eufMbkOcbc7IaGmKkxc8AA/G3RREK1BnKr7a+uImauexPhUoyxDtz4c/v6FbBEMsc5mTLaoqxvPwGBhibmJDNMj/mxdvw3dIrXA7SJaRKRyRfe062rUVzqQwmCEIjunw/lPHjOlHJyhIrMV25ecjABEMDA3IVLU/93y9y4bWsnTTJx/gQdPZXfmpRjpwGRmTLYoSRvGxGJphmNcXEqAQlqo9jqq0nr1N+ObzYyb4J5XWkWbEpeYZN4beexWhROhtGxiaYyMtlZESW7JYIVu3oM8eGZ2Kbi+UJvcDB2R106Wix1smBIFggCBOZttNFtnOxpjKf1/H9yFetCQc4gutOHv7Vgew5stPpl1U88guEWCeIdoKoFCHGEUQXM3F7obdaWKcICTGBCG7ekew6ZieRb4bMDn4q222o5xPWLVlGu9Y/MWn0Yn79vjoV6jdD6HGUo67RON9ayZLB1alStic/bXLE1h28v+S1HZKjIPgQf7WtRjGZQFcYtIj1qbeKTSXBaXTZVHEgliTPs+wY0Yx6qVzW5J1Hfm6OVeOf+WnPC7xlmSREeuO6uTjdKqviGhgYkMfamrwW6pFvWR1UWqgqnlGxRjT4bT7TO1SgoZxAUsUvwbdd13DSG3TDhiL5OnKxXwv1C0rcKbc0xYoUpnhheZnTOs9DrsZLWXrWV/KFllWFpEgnHq/qQ9+KhhikKkdaaRlhlK8DvWacxj4S2ae+WD57TrWvTUspHbF8+bAunI9CudJKJ8W1PDOYc9BDZiIRmzCIwBt/MatZcQq9VdkKka/2JJaefoWex+2LXeyfVFFHmjnzYmptTVHtglYpyiLLK0+rCcxzSCZGBC3Chl0/19elIxhiKL5YBUH20hPT+pGfNjnplyENifzUl97P7KDWfGMu47tpNAvyiy9bAcGiEOUbtqRTqwZ0aNmA9i3koSZNavdm0IB13Ha2IyY0DVczmdnh0fai2G8rJcEkrD/ylF9XnGTQ5PUZ0HyTcZUW1gnB7dgYutdvQfbq69nhCwH3V/DbxIGYfH+CI07xhJPErd3zGFFQwLrf30yxjcMvXOVqpvFwkB8z/YBbQhg4rWZ8y7JqwRa1QUtaj9+JbRQfZoHqkLs8XdeapuaqziJpo6Z5KFi+Lg1bdaBjh/Z06NCWlg0rUr6gOVm0HTAX5o1/YeOzMILVvUXUfHXkq05PjG+QHcsyDWncqh0du3SiTeNqVLPOholGuxU7e768ZBeyYW1ZikotO9CmfQc6talNzZJ5yCkIWi08T5luTLwYi7vWXKAi3wta8hU1ag1p5Ma6WnMat+5Ap84daNuqMY2qWVMwm4k2PUEoScNxezgXKd9hwRfPGwsZUVHATKqviLsZlkWrUK1Ja9p37Ej79u3p0KIeNUrl4htjTX4CpoW6M+CIPy6iT7r0p9J8deQr4qGJb0W+yg1o2LItnTp3om3z+tQvk4vsWTVav9hxK/DdbBvuaZITj68Oc3pieQpr2iKbBTlL1qF+8za079iJju3b0q55XWoWt+AbrekoBxXH7GOnpyyhFOSrfcmYFKJgpYY0b9+ZDu3b0rFlHaoV/4Yc2nILCGVa03CtMz6isTvxCXZ759GkaRMaVcxOgRya+olb5JSjWL0mdGrfi+ZNN/P3Re80xyhkpfrkp++n+arJN9YGxxWjmFfyW7o0q0+jOpWoXbEklcuXpooYKsiDNSUKtaFN2+VcdrpBdPibJ1k82VWGWxvzEep+FGHCyhsM+W0ffSesYeoqcXAkCG/RR/cNbmC6e+AeAk7uz9g+OBe9Bgxg0AlxXzbwO/crI4f3xbT3cY46ReGRAK+f3uHGum5YtV1Al1VPpQV4xO3lv0g/3/hQeLiYvs1LqslX1CBr0HXqae6IY1hyVS2DIut7dz1/1hcooOmkWXMh1PyRCXsf8VJLcBDtepg9E1tQTxDIpu70WQuUocEyB+zUzsP65KvrgDmq9WDoDmc8otWFdD/JuSmVKWip1go0JGLUgJaTDnIpVFOZu1xa+D1txCVG1XFylKlHt90+PA3RxEmDfKW432BddTxzbAN5pfncjvHkpe1sptQvLhu8FMjdbgJTLscTrwHU/STnZ1Yml4WmfOZkMWtDl3knueQt5qf+C3/Ktb/60bucgLlGWzQrQ9auOzj8QlPANMhXKl9eClUdw5RjTrhqBtZCHHm6sQ/1S1mqUl6b7QAAIABJREFU21uFYYtJGzkpqaxig8fz4vAEJpYRMFWbBMzKNKXH6vs4BskEIug+N5e0pvO3unYQmk1l+HFvTekhBfmKGppB9rx80/IXfj/lotNQox9gu6ATrfLI0srXhJJTrvAkQgOuSMJheO0qR58asni9VjLulkyQdLl/tmfvR766Abhk33uiBvmW4R7426eaXJGWzffpvppcXy7wcKOAMG7FdQbP+Ic+E9YwJQPk+yoihmeu51hcwowOdf7HiAvirLW0ydfT+T63NvQmj9kYmoy8/mWv5xsdQKzNcLrVyS0j35p0+2Dk686T3RPpaKDR8MzIXbgvY4+84LGWAHV9JOzRcc5MqELJvKoV+YUsBTBsuJrVt8VFQyBZT/MVNTxDBNO2dJh1Ggf1jiRSxPjn+B0dTYv8OfRIpuwPW9l0T98q7XXxDxbWFsibRdWhLcrUo+tu738lX/OaAxix8zV+GsLXVCMhHJfdIxlbX6Ndimurfk/j1U/xU7tABVz5g5XNBCxMVXlmLVaLJnNuce2FVp3VpAZBN7i3eRDtzM3ULyUzjPP0YOoxd1ylWGmTr0HNHxiwxQn/aHl9oyD0BKuaVaSs5oUkCEjkGygmJsZ15PLsXrTQftI3oEnf4+KSLGn8XefkhLZU1sQ1/Z5OM25JS7tIkVORbz5yF/qJmbYveS57x4hxY2+vZGXvXLr2ksj3sj75JkXgvbs8ffXIdxXjb6fwBZG9I9Io9Ce/9EHI18ueZHEXiyAHCHzwL0F0QxNJ+i6ksa6DSMDyAben+2pxbZnAvZVq8h0ycx/9J63NkOb7KjyeZ27XWFXDlBr1etPsKLwKhKDzvzJC1Hy/P87RZ5GI68F7Ot/k2tIymOf/kaaT7bmf+AVPL44JJN52LN3r5pORbx26TzvLXTmZZVRcg85ycnZr6bNeZYOtQulOf3NRNpKt3098ib0yiZ7l86rL8w2CyRB+3vdUNYId5YWbzOYrGBojVJjB6MMybUsqqy8x95cztHAudd4iEZbjf3878kTORaJ18946NnUSKGimIsIc39an+55/13wr/e8vdsqy1fPX9djJzvGygSahBWX7nOVBvFjbAB6uG05/U4Hs6s/soo1GMe8RaKlXL7EkEl8eYEW93OpJQAImhgVpv+wml6TBN3FISm7zVdWjyIClLJcxpipJceTvKWc71FXbh1VxW07axCnJtpME4afZNKKFZP5RmQkq8G31H5n+1yLmzJvD77NmMWv278yeM5flf0xgaLMqFNeabWrRoPdebkj6M+CawuYrVKFow22cCVe5c8qdCnl9kMOTy+nIN39TSk29iqNM802MCcR9e1m+r64qtyRTX8kki0TPuxD+DBKcIcIBfO5B8BPVjLb4F+ISjW8IrpDoBDEObzXDzXFPJezWZOfVhb4If595zuw1p/nflIzYfOGluLbD69fYzqlO9Tb1MZ94nmuvwP/i74wbPYAsfc9y6mUywYlgf3IJs78TyNNzAcP2BfI68gueXhwXAvf+oF9TjdlBHKwpR6fJRyWNX/OVnFHu5flWtv6ksSeL9rkOVJhmh3N8em4UQSS7/s2MaiXIK2lmZghCO0auvYu4eB7RXrht0Q24CUbGCB2XMkHFQrJi+hPxeC0TrXOTX0onJ4LQl9+OvJQW1pNFxO/mKla3Fsif/W3JV8SoJG3HH+RKCoVLm27YBY7O7aQjEqEe5Woc4oJEvo+5MuN76guC2vWrCNXaLudoEOnaKqODbnLux3w0UA+gGWc1pebM0xwTVxOUHMVSk2+9UavZJ93XlkpNiQ853b4OrWSar458E8FnP/OG1tOW3Uhr35YRnuxZ1UtVc68wVdqu4kgISIaAlynI17whxQcf53pErKRjy0vGywMc+LmSNl9BIV9UJgG1jdf/OmG39vHs+A7sbtgS7HmNqEfHeHF0E7dObuXGya3YpRs2c+3oXu6dP0fQ69skiMtKppj9Jtd8H+8sxe0t1sSEOCGIjWR7zSHjrmYB4oSJaILvbKZ/k0IIVpWYaAsPzy5h2viBZOlvy1kvCH9xmBX/KyKNPreae4MDLuAdJPcT1j//Igbcnq1kZMsyaqEXB7EMaDxqA8eC4b0nCj3fyo4xMvIt3IEKv9nhEpM++Sa4bmNO9RJqm6lIvm0Yvu6u6hM7LfLtvZopN1NOA/Ej4uFqxlnnVpO4aH7ozrTDLqR04nh38hXttHUku7jeIJWcSUIucmiOnHwbUL7eES5L5PuQy7O+k2zbKr/bklRtu+rN5Ot/E5uf8tEgr4rkjLKaUX2mDUffQL46O668YKKJwkHmGaFKT498/Q7yx7AGWhLUDpKlS7ga4hWP1lRut5rjYWrydUtBvgVaUSqlHVdTvJf79T0jFPJVk696J4vYI1zvX4vOghWGnedx1vUATot7M1wQMDMwQDAUPUDSC2LblKdYmd854fi2O1kUIT46QEW+124/eS9XM3EAzsc7iMvXD7Dgl8EMLVGfxvmzY2pmhGBSlBJVa1GuQCUqV+pJ9z+Osu9+FM8DwP0NEy0yPfmKDlCxp1jbrialZJ2rQI+ZzL6v6RV6H4e6i6INVt9moHdP+uH6Dzsn1NB2ZKFgRyrOuMWLhPTIV5z/vYNZ1UuoNVYV+Y5Yc1dFmtHeKTRfE4S+a5h6W/vBri7DO5DvrbfTfHWuZqIJIw9tJ+7hagq7pRaA8Escm9dZV29R8612gAtxImBO3JrTT/IZziphXoxqbVdyIkTu3qZNSTqJDr7N+ZH5aJhbRXRGWU2p/ttpjrqLt0VTQmrNt9XPmzkt8wlWpSgWOB3ylcbvVJrv/KEyty6zxlTvt5gtNsc5cOQwRw4d4lCqcJBDhw6yd7cNF+3c8ElQy0xKs0Oh1pSafo2nEWkAly756uKKazt8GWYHD/wezOXRFiP8rgyHYDc10eoG0zQDYUne9iSJO1kEXcb3+ErOLZ3H1oNH8PC4SMi1bVz/Yzrbl89k0/KZbE03/ML6P/5k35YjvHK/Rbxo+02p+cpczR7vKM6drUVJiA1Rke8lu0cZJ1+fRF74gVskkr9loPsd/u7UmV7Nu9Kia196de9Gq1atqVV3FD/MuCbZJD3CwSsgAdHTQec5oX+e+clXNID6Yj+9I73Vgz/SZ2SxjrRacIfX6XGklhuSCXd/wP2zZ7nl8ArXkHhp2rb2tt8Zjv/WSueLaViTMj338P/2zgM6iqqL4xNCCR1CB0FRBEVBpEgVkSJF6R2UJr0EQgkdpAsoLTQF5KMqIEiR3jskEAihpJOEdNIhIaT9vjOzu9nZzSYkGEgCb8+ZM2/nvXnl7t3/3LnvlgvGgqr+BmIvT6PPJ2W1tq/FkHL1Y8LOu5qd8Wh/Q52veR6k3quxuaa3ytV09SrBVwOAVb9fxHpFF6KdvPpJ5PcnOyfUUoFvCz7ufoIbiuTrj+OqwXyfbGFhzvtNx7FUTlmVTAd1IYk4739Y26wkH2tVAHnMy9B66SVOKxYK8o+UEnwVaVbZRFP3lQb46nS+YQdZPewr1dzb0W6GvZHjibrPNMrGG27lW2n1uHpATb77ZcG3+3KsLqfKUMndZ6fCy9j5JiiZLFwgyROe3YenrpAoP329UbJaJHhCkvxd3oiQGUN+8spnObOFnMXCBZ7ropqlBPkkY/Dd9K7GyUImnA58X8rDTZZeA+K47+aHo1s49wJR0gMFxUJILDzWHiHPIfApeAeZNi0zBuGcD74aloy4aMOCzrIuUwMsklSWcg0msfhysN5MyYh7E+OeQIw9Bxf8QK9PPqHDD3OZ/NshTt1/RGSc1kU3wQH7Nf2pk6zfLEqZykOYeToQD2MrAeCZ+1muzGnAR+W1Lqd5yyHV+YVll/2RZcYU1g4ZBN/JmaJ20NAoV91+/LDdi8hYI/c1OS7IwQlMbakzI5OtHXrTcI0z/ooeJ5aHB6Yw7UOJwlr73QIfNqHNyvvc8jOhRI52xHW3FV2LFqaQ8vtYkLdYO6z3eOCsbB6atnYwDb5pqB0UKTkRkq5yaHIHvQWDVIbqzeezyR2jmAtJJD6LJPxxAL6+fvj5+eITHEFotOqJnSr4yvMw+qQKvvq2Jjfcui7D6q0JKSnnc7MDv0tE3jnCo9sn8PO4SryfHUmyS7H/NZK8zxHgeAQv+4N43TiM981TRDy8RoJslpaKpYOxtYMi+WYO+Go23Fx8vNg1uTZz5s1i1S0UV+NH8ltuCDx8rDm8tGVTNr3GwCt/f1PAl5gznJzTjk90JkPyn7xARYo1Gsn4P2/xMAW+xBB2fw9/z/iWb6oWxkwyp0BhS/JKBanbZSqrnUDzZhmN9+lFTHpHorhu46ZgJQq1nsH8E74YWJuFX+T4gu60L5qXwtqHQJ4SFfl01mVOe2smkGBsapaF4CvrNys3nsHCM76qGMZJ4LGT1V1qG6hxCjYfyYij0cRqdzBj72xh9+DiFMinM0ezpMg73/PjuivcMTBZDeT+n1aMaZybknm1TiV5KyF9vYpt90K0MRkyCXwVKVl+xPlxY11/euWR9K7OlvWoNmwP+w3ckGMJPf4TNl0/w7JUOSpXKoN5q6kM2uWu30x7JeBbzdDaod1Sxl9VAb4RpmfHry9rapYQ6ARhV8FrLWvqladCtWZ8suYQjx9ehShXCDoJx6z5qkYFRZDKk7s0hYt14ufdJ4mIfQjB15WNNuP8ba8UfBVTM49z/FJdokPT3gw/CS7+ifg8TkpVpWAKbI2vvTHgSyKh17eztsN7eq8mBQBLUqFuGzoNHIWV1VjGjLFi7NixjBr6A33a16feOxbJzgkaqfkDPh+6lYsR+qhmCQHnuTazHvW1drSKh5tFJT5s2pXeQ8cxbqwV48aOYmjvZjStWlzVXyHy17diiVNYcoyHFE4WWQW+ugeJ7MbbrDvdBo9i3IQJjBk5kGGdavNpsfwql+EKNBy1mX8jVTry5664/zuKHlUk8ih0lkG4GKVqtqLtD8OxsrZmjJUVYwd359u6FSir8nDLVeZbOm3158ETncI9M8FXA1UxN9azqVNJrTWGLOlbIJWqS6OugxhsZc34cVaMHt6f3k3fo4LKZTx321/5yU4FhJkNvjGheP/xKT1q6d7QJKQK9ajRvh/jxk5k+MAV7Djlobx4Z0fQ1c3p5cD3BkReJfzkIrZ2qErLz7+ixagFrD93jqe+9hBwAseNQxjQvDyft+1B72FjWDymL7M6taT2ly0ZtnAFrp7OxPnJbU2oHQIcFL1z5K0lZKrk6x0VywOP0/zyoQUt6//A98fAPSAR3zTiNhgDranvbw74yka9oUTYr2B+9y+opvpD6VURKobXSqb6OnMsylSnxrCtbHAw1idEk+ixB9ue9ampDqKSog91/xYUrD2aH35zVnKz6pg224CvJFGkZBEsi+kicqnnriqbWVLgs/ksOOibIrZDQvhNrs1tTccqqvZp0sQMsyJN6DB2F/Jbtv5lPPPBl3hvPA9MpccnllpVx4vmWJTCHwxizl4PxVZe93ul8HBL1vnqZ5/cNh1qh6TYCJ4c7Mmg+ro3Bkn1kJPnWJMOc8+h2itO7j47FTIOvvYkBd8F12UcmSK/VZWm86Lt3Az0hhhHeOwEV8czr3UpJKkSE/46TZRi7Hcb7i6mfw2JUg2bMO74XZ742CmebvoNPQ0QG5iayRtumaV2kN2LXbxd2Tm8PL36/cD3uxN4IEu+AnwNeTJJ9ijZwaahdfnIQiJvbnPFi0wXvk8PtprIXbnM5Vfh3BQp35QW1ns54h6p6GYNO4WkxHie3V+Lba+ayut4XvNcSsQxAzMmM02Amdx5LMhbbQDjtzoqEoxOvpP71IFvJ21gHcXONwMbbpmp863V+hv6DBzIV3lyU1wGzeS4BGYaQMhVjAJVuzLy74fcNX4eyYtJioNIB/bPbM5X5eV4ESZobabpyyx3AaSi9Wg39xAnUqQr04JvW11gHQ1QpqnzTUfbuDBX7q7tSvfqxZQ4FWa59GEcNXwg84A8Vm6Kv9uaftudVV6BWg5QJN9P9HsJsqmZkeNEMq8o4Ktqa8LUjIQYcNvMgp51FBrLkdn0PJkfSWrJoBVXcUruNHsWMgy+AfYQ7kLYn62Z0ys/UqdF7L18DqLlDTQHCLlH0Pa6jPy8ILkLT2Xz+dNEyymDHjuRGHCDx2uq0nlgbUrO20+g51XZsyiFdcUrAt9ExdLBPeA5vg//ZPHAMXSpv4bdvpo9QJl15b1S40PeeQ5+Ap5pBFR/cyRfFcQlRhDlc4urBzexfsYQ+rf7jA+03l96Ri9I0Q/rUrfjYIbN38S2E7e55x2JgSerMd8nhBPhdpGLWxaycOi3tK1ZShtURitVFarCZ9/+yJB5O9l5wYVHT1Momol/8giXVQU1YKWTEtssYcRF493uAKJuLGGATtWhtP2akTudcTOaV8CFRSypow+sIxWvyteb/LiTbKYl78zfwyCwjiTRePBctl73xWHbLBb0+oiPkscyJ8+7TWk3ejVrznrgEpGo14EajS3HUYgOus+NI7+zZmpferf6mIrqt4NcllSo25nu1stZc/AGtwOeaZwXDPqROfgK+xp8wOc6mkgSnw9ZyT6TQH0jnW0TiA/xwO3cNn6b0pMOtUpRRR3QRipMwSrNaDfyF9YcdsI1NC7lOl02sGWIzntSQjKvQ9GRJ3GMMiH5um81bGtWw0RbeUMwHNfTm1javzFNy6qi2ZmXpVTNfkzd5YiLip0NSJVNvmQMfLWbbJEOuK5qwk/dStHk5/043LMHOTqZHL837Douiz+hW4sKmA3azBXHS8qDnWBHEuWNtsNdGfJ1Y/LXXMiZ+5eIe33Zi8EzLB5XH2fO/zqBXkXKUlAqzec9xtFz1BRGjJrA4BHqYxyDR0ykb78/WbHLh1tP5SA8pq0f3hzwlbnSmGMTiPZ2xOHMbrauWMiC8ROYYjOJ8eNnMHPOCmy37WPfeUfuBj/XxFzVMbba5Eq5ZtzvYwLvnOHMrvWsWDSTCRMnM2H8Ahat3Mrus444qlx2jeeU+DySULuf2bp8NKNGW2MzZSojdl7hiI+xlcATnvtf4eDCOcwdMxqr8bOwsdnKkbshKWK9PvG+zJWN45g3YyKjR45k1tI1bL0VpYrZYBp8vxy1mpPyEzrpEQF2O/lz2XRmTZjMpDlL+WXzUc49CFcyo2jIkmRkE62hiZ4yCTz1suP6iZ38sXQec8ZZY2MzidlL1rBx3yWuuIQpagtdXzpSa87yQ+oRD/5YzYYRo7GeNAnrsWPY8O91HugC6iTfILf1N2g7zmp0yrYGv2Ecz3yuc37POrbaTmfuDGusbaYzedEqVmw7yjnnUIONU4NbQxxw/HcZNjY2jB87mtHzN7LkiCdBz1M+WAlzTG5rbTWaMfN+S71tfAihjkc4/PtS5k2fzBibGUz/ZT2/7z3JVY8Qwo1cyJOXn00KGQPfGyTJdr7RJ7k8ui7ja1Si96ZTuLjKcR0clE00oo5ysU8Vun1enU9/O4aHq2wXfIPEoFuKhMu5kYyp1RyLfBPZ7XSRyOjbKe18X5XO1ysyBmfP8/zWsgXfli5PhepVqViuHGVKl6WU8VGmJKXLvUeh/OP5cd4d5I1U18BE3ujU8a+JKfVgk44BjRu/IIeb3hU6ZQYMg9FUucWS9DcZNNF90QCJafBtPORn9qeQLHV3Gp6Nl2JY+x+/pdm5EQrJbVNtb9T2P05LftqkOpQ8DTVKZ6hteiaW1sjpuf/VtskY+Moeblfh+d8cb/8pA8wr0XXdMe67yhLvbQi+DBHb2FmnHL3L1GbU39fw9bwBj+XAO7eRnTQ40p0hTRpSqMocjt6/xDM5NoSxk8WrAV+dY0QCsurB2ecpTh4ROMqHu3yO1JzlsvI9ijtez3D2jU8zi4W8AfdmSb6vluFybu+pge9iDmiCreXcpYmZZwkFMg6+1yB2Lyc612CQRSW66cA33BECLoCHLT/XKs53VRuw9Mxdgr1liVjeWLtDov8Ngjd8TLfvPsTy+3XcdpXBOu14vqlaO2Q8kwU8DI/Bxfse24euY+Nye87JCTPlxJnREKg6guMgODiQ+ydWM+j7rUxb58JNWccvJN8sYdLsMagGfPXuxRoddeMhizmQTsk3e6xDzCK7UCBjHm5anW/UTdwW1mfCN0Up/8s/ODywg+gH4H0STg2jc4X3+OjTvmx3vEu4n+xQcVMT/SzmFLe7leSz96uQd/pf+HhchTCHlIF1Ms3DTc67FgReERAghzCVQ0UGnWdenraMbr2JbdEQEANhsRAcoz9kO/MwX0fsV32NJPWgeteTnANcgxJ5aMLNWEi+2YWdX+U8hOT7Kqn7NvadMcnXjkTZ2iHEHc4Nwnbse0hfTmbbWTlwZzA82o//gg+pWOZzynVYzE0/R2KCHSHWDR4fJGBvT4aZl6fyh30ZePocUT7XIThlluN0WTukR/L1CJITXz7ngedjbjmH4vDwIVfs9zK1TEeGfbsS23uxXL8XhMODIOzv64+bHs9xuHKMQwvbULrQWL6xus7VRA34Cp3v2/g3kdesBd8+zZEzXugsPhrJOl+hdnhbmeI/rTtjkq9sh2tPogyonps5O6cPJfI1ZcjSzdx8ZIf/uSVs6VKA95p1ptOK/cSGy1LvVRICLnD/gA2rWptT2rwtvcbv4nHSXeIDTWezyKTYDuDzBO7ev8bWEe/T+F0JKU8hChYsQD6z3OTNbYFFoSIULFQ4xVGocFHym0vkzy1R4fu/WHQ6Ef83OYfbf2Kht+VmGXzvcKxDPSUGrw58P+09mz1yzBLxERTIIAUyLPkqm2P2EHyTJKe/cF/bl88+LKcIAhbFSyPVHcBPO/YQGuKkxH3gxkImtamMVLg80pB5bP7nXxK87EgwIfHqnC3SJfm+OLBOkhI83fmhN6e3L2bRzKmMsJnMyNE9aSiVp0b5VrSdsIjRE2YxduIsxkxQHzMYZT2DcdN/ZdUZPy77gl+wbsMu5VmoHTLIdTmyuWwFEMqj4/9wYNFilq9cyS9LfmbP6RsmgwPlyCWKSb9WCrwc+MpB0J3g8XXw3MaOpdZMHNKbGVPGM3PTPtw9bsAzJ/C9Cs47OLRiLGOmTGH+8YuEhdyB6Fvgdz2Fc0Umg28ibgEJeASDTwzIOf9kK9CwGC/+7LSYdT9d5iwoNpiyGaQp5wr5WthTePQ4IU2LBwG+r5Vns2awJFVMhhQz0NirZm/DphSTFheymAIvB752JPpdJyHgBomP78Jzd004yQQPDeg+vkGCrwyu9sQHOcohAiHRHSJvKamD5MhnOqA1dc4kyTelhGoqLkNmXBPgm8VcLIYXFMiBFHhp8DWyzTUFoi977RWAb4KSIt4rEiUBY0wSPJZ1uHJw9cBEXIPBL1oTxFqWdmWHpbDn8ChY49GWViB1YeebA7leTFlQIBtQ4A0HXxlck5SYvSHP47h79TgrrWwYsPYSGx1iCAgH9xCICQ/izMEd/DhkNIOHW9Gn/2Jm2TpwJQJ8ImQQftMzWWQDThRTEBR4yyjwhoNvEu5BiXgGx+PhdJSNVu2oZWaJWa9NjD/7lAg5YM6jCB4cW8mobnWRpEIUKloEC+lDqtaZiPU+F065xuERBB5vdA63t4zrxXIFBbIBBXIs+KbHzlfJ1xYUQ6DfVZa1r0njUtVptdydfY4xPAwHX79QHp1fT4uaRSldpwOTDsVx4f4T/O3/YemIlkgFStNnlSPHfcAvJHUdstD5Zh0n60IDvMrNrrT7Trs26yiTCSPriGuiqzd41SZW+2ouZdzON+3NspfV86rvS5edb3rA1zMM3B76cnNnc5rW/4x32tiyw1N2M9a4FLu53uPiyo94R6rMO41+Z+9TjWVEXBxc3TuPIc0kyk7ZybTLEBUBqaUVEuD7apjTuNdnN39n66SvadetJ71WX+Scly4koQwFbtzctpiJLdvQvUsXOnbpQpc0jk4dO9C9V2+GTZnFz/87ylmXJ+hzHxsHgwkh7M4e1vbrQ/+23/BN2/706beWPXfClD0E43lm5XcDUIzxxPvS3+xeOZt5EwbTt1d3vvvuO7r36ssg6znMXrmbvy9542mQssigB2KCb3N1VXtGd61H+3GLWXErFl0wMsOWWbnqnDl2jgXf9Nj5ekfB/QeO7B0rUat7P5qujeJRNHiHah0wHM+xdaREiXd/oME4V+7EyTndEvF6Cl73z3F+SQUsvp7Ftys88XmGsjlnCoAF+L5q5k+EGCcOTalPdcW7rDjvTznJIW/tuEqks0vsG9GUiirvM50jRJrnAkUpV7M5bYcsZP6fdtgFxKuyQ+jW5cWjIzZ0Nei7KzZHHqFkbdc1yybnpCgv7p3ayR8LRzOiYyMaVS5OqTx6rzyFHuYlKF65EY07jmTUgk38fvA6D4JjU8TijQ24it308lRV1l6Rj4Yf5qqv7HAiPv+VAm+w2gF8noLTnbOs65SPTsNmMPaEbLObhJfsCh0Dt6/9w/I2ZhT//ifa74siNBw8g5LwjAAvF3sure5KaWkYTX+8wIUkEdvhvzLbS98f7c3zY2Pp+VkRJKkARSqMYsnFUFWOLtkB4jqHJ3eitjr5pwFYGoGPqbqyLem23hE7JX26eraP8Ds9jx+LFaKEcl8JChX7kXmn/XikbpbVZTkDSbQLN7eNY2hdVdZkU2s1vlapLQNsL3Ez3CjaZFwI3FnJyK8qaTypCnfD+qAPLiZC8Wb18nPa+G+w5Au+z2O4df1P5pXNTat2M7A6g5IsUwZfv8QY7E//zswiEvV6rmL8eQgMk8E3UQu+N7i8pielpeE0HXie81rwFbEdXiOLa99rn/gd4sD35amt5JT7lCLtN3PI54k2a68cFNYE+CYnt0wH6OqAKLclUq05/HTkkUoFIa83e4Ovhkzx8NSBIzM70f7dXBQwlnR1a0z1bIZUbSDdljso+fL0KoVoeH6Crd1rK2nkJYuKlB6+l+33DXRV/J78AAAXA0lEQVQVr5Ep3pyhcqzk+2K1A/jFh+NweQNTJHNaNJ3FxAvgLUu+jyEw9jFX9i1koCTRYchWbGWPvJBExarhYSS4O53m6NLKWFazou3sOzjKKgkRUjILOP8RXsdm0qmcpMmiW601TW09cXuiyo5rCnyl0rxboyfDlqzj11W2rLVdxapVusOW1avXsHz+FKb1rMUHxdUJMEvRbvbfXDZ4s84e4KsHRNXPoL2YGO2G58Z29Kxm+LDJ+059GvWbzNSFv7J85SrWrFnLqhW/svwna0Z0qEn1EubJQYIUdcTHPRlw4BGeUerRori/sj2D5PgoUh6kov2w2ujEY9U0RDHjFHijwffRs3gcb+zn14/MaNRhEv2Pg39IEt5hEOTvyFHbodSRitJtymF2+chSsexUkYRfPNy9sJXfukiYt5lO961++EcLnW/G2SsT7vDez8npdSguJ5aUJN5rNZp5jhCp22uThzAJvh/TuOdfXE1zCs9IcFrLtDZVKKmSCD/tt5D1BkneXjX4Pic2zB+fB3e4bXeJ82fPcPLsBS5cv4XjfXe8Q2KVmGqpLyWOoJt/MLu+RElt7jczyQKLcs3pOGUHB9xjTeixwwm6toVlP35JnWJmFLUsT8lSJanxTW96bHbFNUT1cJNJfHMmS/vKySllAC5N/WFb2SXQN/WfJB01bzD4JiJ7tDm7uHJyTiGq/ziAmuuC8AsF3yfw6OafbBjThFxSe7otsedkGHgHJ+ERCAGEcfF/MxgjM1rH1Qw+HkXkE2HtkA5+yvQmfsdsmN9MwiK3/KevSuOef3A8GlUus9TAtyr1Oq7ncKRRW4MZytJdCDd+/oY+5fQSY6Uec1lokHf8FYJvYixJoXZc3rqIqd1a0LhaSQrIa81dhEJVGvBV52FM3HgJO9800vuEX+Pm6p5UkrNMax8i+YrV4Jvl17gUYLDgFF9Cb+zkb6u6dP5xKuPXnuTigyAiY430vvJdYcfZN62N5u1Dksjb0pqRR8JT9CcupJ8CbzT4eoSCp08Qj44MoeanLcjbaBMnn2qC6PgdnsjUZhJStXmM3e2NSyx4R4IcZMfj2DjG1yxMbqkPPX53QuYx/8dJirWDqVgQwtoh/QyX/pYy2LhyZnYXWkkSuWVQyd+JDnMv4wN6fa/coUnJN23wVb9Ue65tzzDllVoDwLUGLmeTgRnDKwLfyHs4bxvFkNZfULNSecoUzU++5NTzchr6vFgUKUmpCu9Tu9tEJu12wVcnkKpscOPuLGPHUDPySNoU6nnep2iLBfzhFmmkuzZB/dgwIh46cN/NB6/HMTxLdSPNDTvbEbSUJCzk36JAZ74ce12x9lDT0sQI4lIqFHijwdc9GB4GPCPIw5G1EybTsmE3Gg2ZzTCbyfTs1JIGLTvSydaBA65JhIaFc+fSv8yYPYUWHb+kXsvv6TnsGsdc4/GOAw9tHAgBvqlwUmZflnfuA/5iWa+65JMkzOQ//OfW9Nltwr7AJPh+RMPu27mQ5ryiiX/0LxsGfk4dRbKWwbcm3Zac4J7Bfa8AfBM8uL3TmkE185FHK63qpFbT5/wUaTqKMTsfcD9SNzkN7HkdGMGMuhJmuk3Gii2oNMMet+daaTkVdDRIXqnrMtXzE7wOzGZqYYniygOiIh80Xci+SE1kwFRvExWpUuDNBt/ABCWNkFsYJIbc5dDq4RQpWJiCuSXMag7hy8WePIiCgFh47OXM1e02VClnidRqHj1OwJMkCAoHD39NAB5TwCsC66TKW/+pIikxnqRLNoxsXSL5VVrqtAirSzEp+zUJvu9Ro8VPrLf35NZ9F9ydH/DggfZwdsXd1Ynbp7ewc2JT6pXKq4yRq+i75PtuHbbXQ43GyGzwjSPm+ESmflVUv7bc+clvWYFKH35EtY8+5pPqH1Ptg0pUKpkfC/Nc2na5kWpO5qdDnkp4VBSr3AAcVg9gYD4Jc53U/HkXmuwIIjQ6DVWF0QrT8zX0xkrWfStRqoDmDaFcjbbMugJ+cqxW8ckwBXIs+KbHwy0ZLIOSeBj4HGfvCOzvBWF3LxA75wgcvOJwC5ItHMAzMA5XnyhuPgjimusTHH3lmBBJacZ00PUv1A4Z5rsX3pCUEE/wnq8Y8IVeF/ve4PX89sDUrTLIGNv5mpM7b0EKW5bAskQJSqQ4LLEsXoSiBfJiLkueeStQ8ZtZ/HrBF/8UkmJmgq+8U2jP4X71lFf4ZCm3XBOaTtjOYecgfEMiiI0O59Gtg+yf3oyGZXUbXbJawZI2Nrs4oWx2yev2w25uf/qo7JstG/VmyLFYJTehKWq97LVoly3sGS5RtojmNylWrSH9/w7AI1kSf9me38773mA7X3UshgTc5ESa4RD8THPIGYvlqGaK3W6Apl7WEQfGQMgTjVWEDlxfdBbgm/l/nsQEf+6t+owuVfXg23D8Nvb7mhjLlOSrkwLT80qfpzwVWk/AZrcryRmBlD51Y2Ui+CaGgOt6BtR9RyvN5kOSatNqwnb+8YszskqII8brAnsmNeBL1YagWetpDD0ti5sy+N7iyPhONJEkcmnXWrpJH0afiiM8kyXSJJ8jnJlZmgrFtZL4u7V5b+U9bgXrFNE6eolzeijwdki+JjIOvwhQM1IvwDc9rJaRNgkkxt3k9JAaNM+nB99vZuzmlJxaOsXHhOSbEfDNV5kKzQYy4uc/2HzEEc9QtR2bPFgmgm+EG+G7ulOrSmEN+MqOHVVm88sFw4Wp9tPg+jRmfltQr6Io150vFtxC44hnz+Fx7an/GsCXgMvYL2lExRLyA0NCKv0p0vgznJZTxYhPhimQYyXfDKkdBPhmmDGy9oZYEp6fZU+96nyhklzbz93LBTnafYqPCfCVXqR2KEGJ4sUoXqSAkihV//rfjWF/2OFqMEbmgW9coD2OP5eh9jvah0qRskhDd7PFWbazSeXjt5flwxrowVdqToNeR7ivNPfm+sw+StwJRX0iSbwqtQPBV7m14isqldQ6pRSpSp7eu9jvHpHKxMXltCiQY8H3xR5uarXDqy0LyTctFnuZOhl8z/F3/eqKRKcDxvZz9nLBlH7RlNpBSmvDzRmX+87cvXSUC3+M4Pu6JSmkAvmCnaYx5lyIKshM5oHv84Ar2C/MTS0d+BYth2T1D9vd0nDXDTnCqjHNVODbgi/aHcVRIW0QDgv701ul85Vqd6HJn8GExsgPpUz8BF/BYcVXVNSBb9Gq5OmzmwMCfF+KyDlW7SDA96V+7xxykxZ8G/4X8P2YRj12cPFFK45x5fKyrnT9WK/ekHK3oe6IS8ipCTWfTATfQHtuLClHrYra8WTwHXuAHe5pKGhDjmBrAL5fU/+7Q1rwBZ+/RjC5qoSZTtVS5msqWV/lgc5oN8UGomZVGTM1A4Ku4LC8qQBfHVv8x7MA30xQSQjJ9z9yYYrbn2nUDl/8F/BN28nCYEiH+fzSS6uDVSTgxnxabw/nAI08mnngmxjyALcN31C7staCoUAppG/Xs94hjVd353Us6ltVL/nmbkeDUaeSw1km3vmF7UMl8urAV6pM0bpz2eAWoWTnNlir8Ze4KJ76PeCBpxdeQVFEG6u71e2DryhqB73kW408ffdwwN3U64j6RlE2RQEBvgJ8TfFFFl/LDMk3/eD75PxUZncqoAc3qRm1vj7AFdDa02Ye+PLUh6dHrWlSvZR2vMJI+foxYcddVYhMNfkT8N3Vh6Eqkzvp82G03Oyht4z4D+7FUbf3c8imOS1+GMyQRX9x7Lo/XtGYjiVhLPkW/5g8Px7kgKdJRbx6EaJsggICfAX4mmCLrL+UGH+fM6Nr0qKQXh3QavpuThoaBWgmalLnm57AOrJo68CxSS1oZakfRzL/hhqDjytebhqtqTH4lqKw5RhW3E4wDVJpkS8xDPy2Ma3RO9pgPrLZVhHKt5rA1H8fEmxwbxD+x+YxsdV7lNF5r0kSlXosZYlG4attHUOg/Xom15Cw1OquzcwsyF/uazpM3sUhT4NOtV/CCbz2P5YPbkY9yzwUKFYCy5IlqNKsB18tu4FDoAk1SMAl7JY01Fs7lK2BNO0CZ32FtYMpCr/omgBfAb4v4pEsqU9MCMfl90Z0/0QPig3GbeYfObCD8cck+KYVUnIVtmvWsHLZPH6e1JU2HxSnuGrDTarZn86bfbSmXPJgxuBbkHz5G/Lt6HnMXfM76wzCVerCVmrPK5axynYNi3fbccVLB1Le3FzQga5l9WuT4+RWbDqA0fNX8MvK1fy2zpals0YyomVFyufTebhJSMVbMHTdFbyM9LgJT+7hvLod3auo+pQD4FRoRJMBM5m11JYVqzShNPUhJT/j4xKqvmUalG5Oq43OOIWmDPKQ6HWY09Ms9Xa+lWtR7TdXHEMyeWPP+Pd9Q78L8BXgmy1ZOykhgadHejG0qR5MKgxYwRonI9SRZ28KfFWSos5aIr3nz4bbssFDTRYj8E3Wrern9sK+P57K2AOqaD0Pd7DJqiHvmEkaDzs1+KdSzlOuBpXHHuYfN0OpVEOReHhix8EpbfmmrESejM7RzBypaDNaj9nNtSc6dYuaBhB9bzO7BkqULaxZd6nqzbE6FoW3Pvmd4Q3iW5oUyLHgK+x80/xdc35lYgLcWoZ1xw/0utjv5jHi/BMTazNl55sBYFSDXd2pzDrmZbRRZQS+6vbpKefKi9RgLlOPGgYFinDYxtZBVdKXd654LT4ds49j3lFaPbQJMsjBiJ45cfn3ofSonMH1V2pH35XnuRJqFDFONczj68uwbSlRSskoUoT361izwQ2E4KsiUgaKws5XSL4ZYJfX2FSWZmNO8Megr6mg8976bBx9/jKhd1Ak35dMoCkVxKzEB9T4sgs/TFmH7QkPPFJIcqYSaGYQ3KrYMHq/RvJNlt3jIwh3+pfDG2czpW8bvvqwLJbaYOiKJG1enFKfNKRZ7wn8tPEMF9ye6IE3uZOUv0l8mAsO/25k04JRjOz0JfXfLUgR44eEnEDz/UY0/m4Yo2avZc2BqziGxJG6o3AUD/fNYrKFpFXRfM7HnTZzPi6teMkp5yau6CkgJF8BvnpuyFYlGV2CuLmkL99LkibsYp72tJ91AXn/yBAk5LYZSx3fpVNHOvfoTaeR0xg7dxV/HLDDITmwgxw2QY1u6tTx39I+jZT0KdLVd/yOLt170mrqHnY4qHYLDfyHwwm9c4oDqxcxx3oQfXp0pm23H+hrPZt5G3Zx6Ha4YVxe9dSMfjODqmee+Fzax1/LpjJjTGd69+hM+/YdVKnj97D3nCceBlZuBj2oenfh2qqhNJUkJcSn9E53vp7voI+FoWopiumjgJB8Bfimj1OyqFXQmeksaS2RX0kI+R4Nuv3G4SiINsIIo6+ZOttM7TtTO8vUZabdWehhdk9rqYmrLEkUbGOD9SlTKqC0uxG1egrkWMlXeLjpf8Q3uuT7L6dnN8JS3hCSJD5qM4rV9yDKIMHlG02B7LG424v5pb/ONrk8TUbsZJ8msk/2mF8OnIUAXyH5ZnO2DcX33FIGV5MoLOstP/2WVlt88Xma0hQqmy8kB0/vKW4bejFMCe+ZB6nSKGx2uigpt3LworJ86gJ8BfhmOROmOgHtK3rs48tcnVCZxkXlvGa1KdR3H+fldNLi8xooIJu1XWfv0HqaIEcWlXln6gn2eQnb3v9KfAG+Anz/Kw+9+vtj/Ek6P5V+9YojSSUoWn4mtjfDEJnLXz3pSQgD9w3MaF5ZsUcuUOIHph8PUDY9X8Pob/QQAnwF+OYABo+HWCeOTG7AJ4rJVGnq/HyZU0E5YOo5fIrxj29zd9knfKYkGH2XT0ad4opfWtF3cviCX+P0BfgK8H2N7PYSQ6msA6Jv7WLv/B8Ybj2W2fvv42gYCOElOhe3vIgCzyMe4rLfhvkTejN03ga2OMURI9TtLyJbuuoF+ArwTRejZNdGBuay2XWSOXVeaRA3jaqcutrXPm8BvgJ8XzvTiQEFBQQFIMeCr4jtINhXUEBQICdTIMd6uAnwzclsJ+YuKCAokGPBV3i4CeYVFBAUyMkUyLFqBwG+OZntxNwFBQQFBPiKDTfxLxAUEBTIAgoI8BXgmwVsJ4YUFBAUEOArwFf8CwQFBAWygAICfAX4ZgHbiSEFBQQFciz4ClMzwbyCAoICOZkCwtRMSL45mX/F3AUFciwFcqzkK0zNcizPiYkLCggKINyLcReSr/gjCAoICmQBBYTaQYBvFrCdGFJQQFBAqB0E+Ip/gaCAoEAWUECArwDfLGA7MaSggKCAAF8BvuJfICggKJAFFBDgK8A3C9hODCkoICggwFeAr/gXCAoICmQBBQT4CvDNArYTQwoKCArkWPAV7sWCeQUFBAVyMgWEna+QfHMy/4q5CwrkWArkWMlXuBfnWJ4TExcUEBQQ7sWJwr1Y/A0EBQQFsoQCQu0g1A5ZwnhiUEGBt50CQu0gwPdt/w+I9QsKZAkFBPgK8M0SxhODCgq87RQQ4CvA923/D4j1CwpkCQUE+ArwzRLGE4MKCrztFBDgK8D3bf8PiPULCmQJBXIs+AoPtyzhFzGooICgQCZRQJiaCck3k1hJdCMoICiQEQrkWMlXeLhl5GcWbQUFBAWyGwUE+ArJN7vxpJiPoMBbQQEBvgJ83wpGF4sUFMhuFHhrwNcjKO04Dup6ddlUanl1vVz2egxuAQlsOerBwi03+OecO/EJSdnttxbzERQQFMhGFIiPfkTQrXnc2WRO0PnhEPaQRH/7LD2SAm8p40feWoLT1srYbXqX+GchSDLdzl65w49Tfkdn7eAXQaYExzEFsum99vAxuPrrwXffWTfi4hOUnzkpKYn0HHJjuZ3unNo96np12VR7Xb18lj+m2uiu6ep1Z9311M5Kh2n0qe5HXTbVn7peXTZuK9fJH+Prpr7r2unOptrI13QfXTm1dsb16enX+J60+s5I2/SOnZ4+1X2py8ZzTasutbYvukddry4b96deh9xO/phqo7umq9eddddTOysdptGnuh912VR/6np12bitXPf8iQ+BDvO4s1EG32EQ5kmiv12WHkkBDsr4aYLv1NXnOH0rFP9sAL6y5OsakMD24w/5easD+4TkK/OW+AgKCAqkQYE4neS70ZzAbCP5yuBrz5M7ttzd/hF2myrpJd8zlx3pN3E945adZcWeB2w74cUfRzzScXi+oI26Xl021be63pP/HfVk02EPFm13YvzyM4yYvp7hI0YxfNgQhg8fLg5BA8EDggcMeGDw0DFMtPqeDT/Vwc5Wwnd/VYLP9SPwdLcsPror4/sebsyt9RL2m8rrwfei3V1GzNjExOUnGLfsNGOWHMdq6YlscUxadZ7RC/+hRddRFCxUhNzmZlhYWIhD0EDwgOABAx6QcllQqWxehnXIx7lVltz7XwHs1ppht848i49cyvg3fsvLxRUSdtu+IP5ZmEbn6+TsycqN+1i/7TC/bT+SvY4dR1gnz2vLPrZt28727dvYvl0+i0PQQPCA4AE9D2zdvotdW1fw7xYrTv5pzeld1pz6K3sdR7YM49KhBcQ9j9aA79PoGHx8A/H10x7+gfhml0Oek38QgcGhREZGEhUVpZzl8osOXVvdObX26np12VR7Xb181pVNtZOv6ep159Ta6a6/qE91P+qy7n71WV2vLqvbyGW5Lq16dXtdO91ZXacuq/tMT1vdvelt+6J2uv7kc3rbvqidul5dVo+lK6vr1WVdve6cVp2uje6sa6s7664bn9X16rJxO/m7rl4+68qm2hm3Ta2N+vqL+lSPpy6r+9CV1fXqsq5ed46KekpkeDDhwR4EB3gS5J/9jkBfN0KDfUhKTESSdwzFR1BAUEBQQFDg9VJAMTV7vUOK0QQFBAUEBQQFBPgKHhAUEBQQFMgCCvwf/eihHDy4iwwAAAAASUVORK5CYII=;" vertex="1" parent="1">
          <mxGeometry x="12" y="76" width="141.09" height="82" as="geometry" />
        </mxCell>
        <mxCell id="Mh07rbQPcgnBI5IKcRmm-2" value="" style="rounded=1;whiteSpace=wrap;html=1;" vertex="1" parent="1">
          <mxGeometry x="425" y="242" width="120" height="60" as="geometry" />
        </mxCell>
        <mxCell id="Mh07rbQPcgnBI5IKcRmm-17" style="edgeStyle=orthogonalEdgeStyle;rounded=0;orthogonalLoop=1;jettySize=auto;html=1;exitX=0.5;exitY=1;exitDx=0;exitDy=0;entryX=0.5;entryY=0;entryDx=0;entryDy=0;curved=1;" edge="1" parent="1" source="Mh07rbQPcgnBI5IKcRmm-5" target="Mh07rbQPcgnBI5IKcRmm-6">
          <mxGeometry relative="1" as="geometry" />
        </mxCell>
        <mxCell id="Mh07rbQPcgnBI5IKcRmm-5" value="" style="rounded=1;whiteSpace=wrap;html=1;strokeColor=none;" vertex="1" parent="1">
          <mxGeometry x="433" y="37" width="120" height="60" as="geometry" />
        </mxCell>
        <mxCell id="Mh07rbQPcgnBI5IKcRmm-20" style="edgeStyle=orthogonalEdgeStyle;rounded=0;orthogonalLoop=1;jettySize=auto;html=1;exitX=0.5;exitY=1;exitDx=0;exitDy=0;curved=1;" edge="1" parent="1" source="Mh07rbQPcgnBI5IKcRmm-6" target="Mh07rbQPcgnBI5IKcRmm-8">
          <mxGeometry relative="1" as="geometry" />
        </mxCell>
        <mxCell id="Mh07rbQPcgnBI5IKcRmm-21" style="edgeStyle=orthogonalEdgeStyle;rounded=0;orthogonalLoop=1;jettySize=auto;html=1;exitX=0.5;exitY=1;exitDx=0;exitDy=0;curved=1;" edge="1" parent="1" source="Mh07rbQPcgnBI5IKcRmm-6" target="Mh07rbQPcgnBI5IKcRmm-2">
          <mxGeometry relative="1" as="geometry" />
        </mxCell>
        <mxCell id="Mh07rbQPcgnBI5IKcRmm-23" style="edgeStyle=orthogonalEdgeStyle;rounded=0;orthogonalLoop=1;jettySize=auto;html=1;exitX=0;exitY=0.5;exitDx=0;exitDy=0;dashed=1;dashPattern=8 8;fillColor=#fff2cc;strokeColor=#d6b656;" edge="1" parent="1" source="Mh07rbQPcgnBI5IKcRmm-6" target="Mh07rbQPcgnBI5IKcRmm-1">
          <mxGeometry relative="1" as="geometry" />
        </mxCell>
        <mxCell id="Mh07rbQPcgnBI5IKcRmm-6" value="" style="rounded=1;whiteSpace=wrap;html=1;" vertex="1" parent="1">
          <mxGeometry x="316" y="137" width="120" height="60" as="geometry" />
        </mxCell>
        <mxCell id="Mh07rbQPcgnBI5IKcRmm-7" value="" style="rounded=1;whiteSpace=wrap;html=1;" vertex="1" parent="1">
          <mxGeometry x="556" y="137" width="120" height="60" as="geometry" />
        </mxCell>
        <mxCell id="Mh07rbQPcgnBI5IKcRmm-24" style="edgeStyle=orthogonalEdgeStyle;rounded=0;orthogonalLoop=1;jettySize=auto;html=1;exitX=0;exitY=0.5;exitDx=0;exitDy=0;entryX=1;entryY=0.5;entryDx=0;entryDy=0;dashed=1;dashPattern=8 8;fillColor=#fff2cc;strokeColor=#d6b656;" edge="1" parent="1" source="Mh07rbQPcgnBI5IKcRmm-8" target="Mh07rbQPcgnBI5IKcRmm-1">
          <mxGeometry relative="1" as="geometry" />
        </mxCell>
        <mxCell id="Mh07rbQPcgnBI5IKcRmm-8" value="" style="rounded=1;whiteSpace=wrap;html=1;" vertex="1" parent="1">
          <mxGeometry x="208" y="242" width="120" height="60" as="geometry" />
        </mxCell>
        <mxCell id="Mh07rbQPcgnBI5IKcRmm-9" value="" style="shape=image;verticalLabelPosition=bottom;labelBackgroundColor=default;verticalAlign=top;aspect=fixed;imageAspect=0;image=data:image/png,iVBORw0KGgoAAAANSUhEUgAAAFIAAABVCAYAAADaKbMjAAAP2UlEQVR4Ae3bBYwjx7YG4A0zMzMzMzMzJxsmhZkVZiYpoDAzMzMzM0dhZqqrr6TT6uvMztq9PfbTuy7JY4+ru7rqrwP/OafcL3VbLQj0q2WU7iCpC2RNQtAFsgtkTQjUNExXIrtA1oRATcN0JbILZE0I1DRMVyK7QNaEQE3DdCWyC2RNCNQ0TFciu0DWhEBNw1SWyK+//jpddNFFab/99kv3339/+u6772qaUnuG+e2339K9996b9t5773TJJZekjz76aJAeXAnIP/74I5177rlphhlmSMMMM0zaZJNN0ksvvTRIE2n3za+//nrabrvt0uCDD57XccEFFwzSFCoB+cEHH6Qlllgi9evXLwO54IILpkceeaSYyN9//528/vnnn+K7Tn+IOcU8Hn744bTWWmvlNVjHhhtumN58883Kc24ZyG+//TZdccUVaZpppsmTGHPMMdPBBx+cgKv9+eef6bPPPktffvlloj6dBtPz//rrrzynzz//PM/PPJmio446qgBy5plnTmeccUaibVVay0C+/fbbaYcddkijjz56nsQcc8yRnnzyyfxswD322GNpl112yWpz7bXXpl9++aXKvGq7B2B33nln2mmnnfLr1ltvTb/++mse/6677kpTTz11XscII4yQtthii8T2V2ktAwmohRdeOA0xxBBpxBFHTNtss0368ccf87PfeOONDOLQQw+dJ7f99tunb775psq8arvnww8/TPvvv38aeeSR85zWX3/99PHHH+fx9e26665prLHGyn1LLrlkYjuraFHLQNrRKaaYIj949tlnT4z0Tz/9lCemjwNiwEns7rvvXtmbWwwzQcqpW5XFmRTQDj/88DTZZJPlOU877bTpoYceyvMlmTfccEOafvrpc98ss8ySHnjggUJi80VN/mkJSAb7wgsvLHZ3lVVWSU888URhV0466aQ05JBD5klReZ4dENqLL76Yzj///HTzzTenTz/9tNfpkYpTTz01S/fmm2+edtxxx3TiiSeml19+udf7qOXtt9+eTjnllPTaa6/la3/++edEhWebbbY8Lzb9kEMOKaTymWeeSYssskjum3jiidNZZ52V7XuvD+qhsyUgAXDQQQcVYG299dYFKBbPxvCAXhtvvHFWE+D/8MMP6eijj052fKmllkr33HNPD1NJ6fvvv0833nhjHofkMB3GGm644bJz22ijjdKVV16Zvvjiix7vB+Kaa66ZZpxxxnTEEUckqqtxkDbdWMMOO2wG7sEHH8x97733Xr5H36ijjpqYo7feeqvH8Xv7siUgH3/88cTGhNQhsyFx11xzTUKDTMjLQjRAokbLLbdc/n6wwQbLRL5xUsAh7XPNNVcxhnGGGmqo5J4Y12acfvrpPYJJascbb7x87dxzz51uu+224jH77LNPsTFjjz12uuyyy3IfKSYQww8/fH7W4osvnkhpq60lIG+55Za02GKLZUfDoRx22GHF86ji5JNPnhdh188777zch3qIHEK1JphggsSbN7abbrop3x+bBDx2bb755iuoVoA555xzZslsjKYuvfTSpM+9ABV5RTMHNt0YHA+qo1H9vfbaq3A4aB2O2WprCciLL764cCbUjgREwyU5GI7GZACjcRSkc9xxx819888//79U+5133km77bZbIXWTTjpptovXXXddtsHs6r777pt8DwjP7t+//79sJkexxhprFOOw2dHY8lVXXTX32Wimhrb8/vvv6fjjj09TTTVV7htllFHS3XffHbc1/d4SkGeeeWaacMIJMyDUg2HWTMiu4mIklXpYlEb1cTjf619nnXXSU089lfviD2/P4JMktGqrrbZK7777bnTn908++STzV84CmGwoJ1Ju7DQbF5LLnkdjL42rj9QfeOCBmbbZaNoT0qqPrW21tQQk9cW5SN0kk0ySqY8HmgyqwymIvVdeeeVMzPUBcsstt8wLoFK88AsvvPBf86R20003XR6XZPD2jc0z2LyFFlooj8VEkNhye//999Oee+5ZAOmz+1AnDmfnnXfOfTYLt2QaUKzLL788zTvvvLmPTb7jjjvKwzb1uSUg0YoxxhgjL5j9ChtEPagmlfFabbXVskqaASCBRxKoDVBRoXIzDgBt0EwzzZTYusYGELaL1zfWOOOMkzi4ciN1HGBIpDnhioDECJBvfZ4jawVcQAp52WJ9bQGSt7QAExl//PELyTGZPfbYo5DIFVZYIT366KN5jYDcdttts9qONNJI2bY999xz5fVnxzHrrLPmcan/kUce+V/98Q+bHMEAzhd2OPrZ2gALKMCKJvYX2vqe+h5wwAEZXBvEg88zzzy5j7T2uWqzJVNOOWVeMOk67bTTYp5FGGaSqEfYL9JqQa5nJ9GgcqbIAGjVuuuuW9CqpZdeOjskcb0ECPsoGgnizIQI54Sr5Ya24K/A8jrmmGOKbgRdhsf3zI9oxyYD8uyzz84cN/r6XLWvvvrqzPNIpMUce+yxxUR5QZSDwyC1iLNGWtnWkCRkuczvXEPtTj755MzlYjGu46SOO+64LGUkBtfTz+FxJEG4YxLoGYBd41rOMRpwIvVH6sOjA9Pcg7pxZhK+rbaWbKQHrLjiitmzUgGeLxoHIRVlEV7A03h0XnmBBRYo+hDvxoZysL9xv3f/TzTRRP/6Xjwvo4MDltsJJ5yQN9G9NMfGR9PHHOjj9M4555zcZQy2NLJZNjDMUtzbzHtLQMrukBIgmpDPkd3hCFZfffUCCB6SVwSkXKV4WQjG2zc6CRMlTdTfuMwDp+VzvHBH0u5/1AepJ8nlFjQGZxWuPv/887mbVmy66abF2BgCbqqJqGT4ORnPFEo2OsPyMwb0uSUgZXnYxVjkBhtsUMTTQGPAY+HLLLNMNtoWoQHKznMkjckH3pOZAKD7SZPs9fLLL58WXXTRTKfYNw5OP6DQLXFyubGDVFYJgRZEVsr3Un/utVlAjdKIrHjE4dRaKIlGtdpaAtLg1AUZNyn2SAKCndHQGPZHnyhERBOJXe/iWhIc18dkX3311bz4ABKIpF9BShrsq6++ymUAbMDYnmHxjXyUY7OhPHSovXtJaqTKbIbUX+RQBQdhdsxZ9BZaFvNr5r1lIFUMURULYr8OPfTQAiyZ8pVWWin36d9ss82amhT7SILDZJRpSyxCzM4mR1JC7G4uA2uklvRGYldixcZpQAcqDTBfcTomYENabS0DyX4I8yLFhapEvYbE4WTiaSEXdW20Yz1NkCRL+WMDFkWCGpvFsWsR2WAGjZFN4z3+R5+EsuYEKFw0pBGgaBd+C0hCEGvpaazevmsZSDlJdIE0hlQy/KFK1MouX3XVVdnWNJPZ5lHRFc4ERWHfGhtbaxPDoZFe9KbRTDTex9lRVUllERPnQro1uc/RRhstrwND4DzlTqu0loEkGVRYKAdI9mrttddOEa2YJMmkNshuM01mx1heJNkm9NSoMhMQ13JezSRhgclWAtRnjeSVw0k8Vczd7Jwb59cykAbgDdEb6k0decTGaKXxQT39b9IWtN566xXgsGVidVIe1T6bx6lhCVGoAqbnqrlUaZiDhG5sitCSADSjQT09rxKQBsIbpaxICIcjnGu12RD2UX0nFhTvbBrJFD+zjUoI4dXjGqAPKC4f2FzYTqEhG2/sKmFh+RmVgSQlPCK7ZSfD7pQHH9hnqiahEVFFEG5AkXZq3r9//4T2CEkDwPK7cjA7WUWSPN/88cbgnAOb84D6KwNpQJMPwj2gB/T2vY0IDsfZ8KqcTdARSQ4gh1flEOQ6OZwAXdab9606jyoC0NOaBgnIngZs9jsLkEWPZIbQUblC+BiJ4LLkARWIUlwSIhFdcRL+D+Lf7PPrvq5jQKJJ+F3QKGosKSJkU7Yog+gz4KgxL63+Anjfe1enFmZ2snUMSE4E7QkvLNwUrikPBLiAosKYAd6I84mFlSaWXXbZnN+k9uX6eqfA7BiQkrDlqEJGBg2KvCAQ2U8kOZIKIYFKwiSYlAKaM7IxnWwdAxIvRHvYPtIWNg9YUlpiYhGSxAX6gzNGvOwakhixudg/TsR1CsyOAclB8MLhfYHjBVDlCAWpcCDeAc9bR84yrvfOFAj/IobuBJgdA1LesAxGfBa9AK0x5pX8EIY6/xPXxjuKJHHcTLjYVyB3BEi8T4otgPDO+yLnilxlcl3+DAQOCWjKtxHpKGaJ/avUWuoCtiNAqu9EojXAVFe+/vrrm1JPFUqOqGxXmQg2tVOtI0DGiYcA0Tt7KYs0oMJTSCb1FuP3ZCuVWCOd125A2w4kh1DO9pTBZOucG5IEacwmUWmlWXWcKHWU7/UZYY8Dpv+vgZRckCSInCLqo7yr8M/OBTCy36RTSVdIKCnrXGacRnMd6uP4CppkHN8ZV5GtE62tEsnzKg84iWHhClFOWfDSSLeDUeUsj0QGWxrnv90DcAcESK5QEe0JgJH6OPfYbjDbCqTfuTiLGNkdp3NfeeWVvGbURegnN8heAo0DQc6FiP4HsrqKHGbcd9999+WcIqlkNxXIwp62E8y2AhlnFC2YZCmilX8DqKAvbIySLvDKL3SH5JYPgkooCyMj1eZgQCdaW4GU2Ylz5o6PSJsBV7Ya9XHAoEyLnMyg1mxmACrt5gCA6x1GldNUBHNowDXspAJd1GbaBWpbgWTT2DcLRqA5E2d4qGPkJQMwWSHHmFEa2R2nIIKAczTsIhqkEkjVw04aV4mi3Wm1tgHJ0Ti4RMqAxbFIhUlchDQFiGrXzmI6SSFvSZIdvJL1CXvpWnQJkee9ffadDQBw1fp0VQluG5B4oDg5ohE2smwLfeaJ/Y5RtqdRolAnxwGpv9xlORPEIYW0AlM26Omnn66KSaX72gakExhOU5QXbNG8rRyk49FO4Ko/99ZELrgl8h2/FzdO+SUBXLVM29uze+trG5CiElJYTptRcwUvtpLDifPevU1Yn3q4ExNids6FdJbH9b8xG6V6YOMOSn9bgJQSc8Y8pIazYAdxSgkIoFRpyqlCSeMojIX9ReQdnKpSa68yD/e0BUhlAPXpAFL457eAdZVCUZ1nn302h5WewVw4rdFOO9lnQDpAILPtDJD4N85vU8HysWPSyqNXfbk/Mj4O32MAJN5vFmXZgeyaqmd6mpXQPgOSNDhgL5Mj2xOVQWrnf+qII3r5TWPVl/sdaHVCDu9E3m0WNSf5wPWKE7rNAtPqdbUD6cQD2+Q3LcATmeB4pITa8doWi4Drq+vF8xuXQwsTImY3vmcpYTRzMLVVAOP62oGk0kqtDifFgv4vvPu1gmN7fdVqB5JNQmOoG0kglaIYoWG7X57rqLR5MAF9Ge3UDmTsuF9r8aRsZSdfIirzkMjoS4fTZ0AGoP8r710ga9rpLpBdIGtCoKZhuhLZBbImBGoapiuRXSBrQqCmYboS2QWyJgRqGqYrkTUB+R8mb64+i3hKqgAAAABJRU5ErkJggg==;" vertex="1" parent="1">
          <mxGeometry x="223" y="251.5" width="33.76" height="35" as="geometry" />
        </mxCell>
        <mxCell id="Mh07rbQPcgnBI5IKcRmm-13" value="" style="shape=image;verticalLabelPosition=bottom;labelBackgroundColor=default;verticalAlign=top;aspect=fixed;imageAspect=0;image=data:image/png,iVBORw0KGgoAAAANSUhEUgAAAHwAAABjCAYAAABZnmTwAAAQe0lEQVR4Ae2dB+wVxRPHsWCl2BVEsSuJWAklAcGusfdeYosKYjChKhYCdkVFhdhb7ApqbAhqxN7BCnaQonQRFCz7z+f+WTM3t3ev3N577/feTfLL7d1v63y3zM7M7mtmcmooDjRrqNbmjTU54A3WCXLAc8AbjAMN1tx8hOeANxgHGqy5+QjPAW8wDjRYc/MRngNeeQ78+++/Zv78+WbKlCnmySefNAMHDjT777+/2Xbbbc36669vVlttNdOiRQuz6aabmp122smcfPLJ5pprrjGvv/66+e6778yff/5Z+Uo30RKrPsK//vprc8IJJ5iNN97YrLXWWmallVYyzZo1K+pvlVVWMa1btzbt27c3I0aMML/99lsThaFy1a4K4H/88Ye5++67TY8ePQygFQtwoXitWrUyZ5xxhnnrrbcqx8EmVlJFAf/nn3/Mxx9/bNq2besN5LhOcMQRRwTLRBPDI/PqVgxw1ujjjjsuWIvjQJLfW7ZsaXbbbTez7777miOPPNIceuihplevXmbrrbc2q666asEOw9LAVD9q1ChDR8vp/xyoCOCM6p133jkWpJVXXtm0adPG7L333oEw9uWXXyaCxFr98ssvm/PPPz/Id+21147Nm86BELhgwYIcc2Oyt5ZNmjTJrLvuurGAbLDBBubRRx818+bNM3///XfJoCxbtsxMnz7dnH322bECH6N9zz33NH/99VfJ+ddbgkxH+J133mmaN28eARsA2HLdeuutZunSpd54isR/1llnmTXXXDNSJstFx44dzffff++tvKaYUWaAM7JdYCOVd+3a1SxcuDAzfr344ouBrODa4nXp0sUwKzQqZQI4a7ZrGgeAW265peDUSmd49tlnzeWXXx6M2KOOOipQtlx44YVB+o8++sigrEmiGTNmBDKBFARteL/99qsK6GxHP//886RqZ/4/74AjjbsENDRlDzzwQGyDFi9ebF544QVzzDHHOGcGC5Z9brLJJmbAgAFm8uTJZsWKFc58GclszxAKbTqevI8cObJgp3FmWsZHhMyxY8eaXXbZxVDvaiqIvALO9ufYY48NMRcGM7IfeuihWAY/9dRTgZRezHZLAkcY7RxrM+u3i37//fdAwaPTURaSftZ0//33Byph2bYxY8ZkXWxs/l4Bf+edd4zeIrFmM427aObMmYbp2oe2DRXrxRdf7NSrA3r37t0jHZFvWezRFy1aZO644w6z++67O3cOu+66a2znd/HJ5zdvgDN9brTRRiGmMrIR0FzboR9++CEY1XrkyXemXgwna6yxRvCHEOgSxGSaww8/3LBWanr//fedSwVTuy/CiPPqq68W1CTSwR977DFfxZaUjzfA77rrrhDYgMDWyyWNszVCCyaBsmEA3W677cywYcOCKRcB7YsvvgiEnbfffjtg1Omnnx6ZSWx6nsgBLnr44Ycjs8l6661nZs+e7Ype9DeAvu2224KlpVCH7NChg3n88certo57AxxDiGQ6YdSamlCStGvXLhIXRm2zzTbm9ttvd84IOp9ff/01ULYAmC6X9zPPPDMizC1fvtx07tw5FJ9ZBPmiHJLCWBLQlAHQ119/fVFtK6cuxabxAjh2bL0OY8d2KVUYfS6A+F6O+hMpHdOqzpP6sLXT9Mgjj0TiduvWTUcr+O4SxnQdeN98883N888/b5AjaoFSA85+GMFLNpYejbpUk2tKJd0ll1yio5b0jloWhYqsA+Ett9wy0olQ3+pRzuh87733CpZZSBiT5SOwIbhVcwvmalBqwGG2HmEYQvguCWZpsyiMjltvZdpiwnPmzDHrrLNOBPT+/ftHktPx9BSMISaO6CTFCmMonJhFapVSA850zl5Y9u599tknst156aWXImZN1uxypvE4ZjJ1rr766qG6YE5FqSPp22+/NThLyDp36tTJsMa7CLlDL1kyLWErjOmyXPlV81tqwJ944onIaMHfTBM2bc2kuP25TlvsO1tDreVD4fHhhx+GsiDeFltsEaoP/nJoCeNo0KBBkXbWkjAWV2/9PTXg2Jo1kNizJdHr2U/LeFtttVUmEutzzz0XKocyzzvvPFmdIHzqqaeG4rHX//nnnyPx7AfaQKewbag1YczWs9AzNeB4l1om8MRTRdu1n3nmmVAc4l122WWF6lbW/xEiN9tss1B5yBRao4ZAJevNmv7mm2/Glkm+F1xwQaA9q0VhLLbi6h+pAWcdlozDLUkTShQZh6kwSz32wQcfHCqPshHqJGHRk3UijP0+iQpZ6JLS1sr/UgOOx4pkHCNeE04JMg7TOxq0rKh3796h8igb4VIS2jVZJ8JXX321jFKX4dSA67X56KOPjjBKW9BYL1GXZkUYUTSYqGUloQ7VcRDM6p1SA669WlyAH3/88SHmZg24S5D84IMPQlguWbIkVCfAHzp0aChOPb6kBlybQw855JAIn3AwlKOJvbKeYiOJUnzgMIIsj/BXX30VyvHHH3+MxPFpOQsVVkMvqQHfcMMNQ4zba6+9Is3r169fKA4SMaZUDC6XXnqp+eSTTwK9uy+hqGfPnpHyGNGSxo8fH4pDp0ADV++UGnA0THI04cajialSxtFhpHa2UujkUWGmAR7dtdb84RGjibNosh7UQesPdJp6eE8N+B577BFiHMoJTWjUJHOTwmjGkOpxkCiHMMTo/PVUTYfiFIuMh6p11qxZ5RTZpNKkBpyju5JxjBR9fNel/ZJpXGGWCnzdSiEA0143yBg//fRTKBv09zgTynLRJ9S6HjzUiDJfUgOOK7FkHGEtIH322WeRONjLAUdbrWRejHb2xsVM8cRBE6bzQ07QRhF06+wUZFkcc9LauDJ5WtPJUgOOI4BkHGGsVpIQmDQQJ554YgAkzD/ssMMSz4ZfddVVMjtn+MYbb4zUg9nGNUug1tV1dhl8nAU18Y+pAX/ttdcift8uK5i2hUtBitHJTQ4XXXSR0wzJtPzKK6/Espr0V155ZQhEOtg555wTmR1++eUXo92iEPK0/T62sCb+j9SAoyLVNmiXderAAw8MAUIa1wGCcePGRQBhNOKGrNdizXuWF6sIYrnA7q1p8ODBoXrQMU455RQdrW7fUwMOUwFDTpHsg/W661J34o/mItZ87aBA/ueee64r+n/fsNJdccUVQX20HEEklhYtrNFB3njjjf/yqPdAasBxGtAuTkzXOBlIYi3V6/i9994ro4TCDz74YKgTATidoJjtmusUCjsH7XtHnjhMuPzYbWVw8GDmyOrPllOpZ2rAGVU4C8oRjhJFuy7hJGinWxs3yY8MBgCQ7iR4zpRD+I3bcu0Tw08hZQu3Vtj4WTzLaUuaNKkBp3DtvsTBQY4RSXJN/WyZtLOETDN37tzI7IGDRakKErR3WlADvL59+8rinOEccAdbrrvuutAoYFRqt19OoOj1E7Vskr82+2KMMXJksTfn7HmxhDzgAptdA86JhSgH3MEhJHUJCmG9d0aIY22X8ZCkOUGSRNwSIdPQmQp5ptj8WO8BVi8LzEBxAqNNa5854JYT4sm0rM2kuCpr6tOnTwg81vRvvvlGRwu9u7R0nAsvROyrdQej41DmzTffXLRWDUcNdA1Z/RVqh+//e1nDqRRXYsqRiOpSqyq5VlPGIew6oSIbyZSvRyiHCZMIVSqnVnVZaN70zJOUTz3+zxvgeLpoBmvFB6MOpst4OEcUItZtmcblVSPz4LSJjG/DXBmStAWTedRr2Bvg+INZxtonl+tokr7dxNt+++11lNA7BxJtfvZ52mmnheLIF86Ba80f6RpJmyb5ocPeAL/nnnsiwLBWauK+NAscT0a86wy5TccaKuMTdp0XIz5KIH2ihPicU28E06flWdLTG+A48WtgcBfWhEFDx2NUxhFnt2V81nMu5nURFi+9ZLAVbPS72SSvvAGOo78Wrlw+6nrPDphJB/KxcUvAOdSHIkUT8oG+kI/6NIrZU/Mj7t0b4OyzOW8lwcGLRBO2chmHMF4zLkLa5gIcGR9Qp02bFopO2fqwA2mws7vulwklbrAXb4DDNy66l+Cgq9YmUE58aKGKeHiMStco1lxs3HrW4LoQ7cGCYKfvjGG/rQ8fNBi2zuZ6BXz06NEhwAH/3XffjRTsOijA1otzaXi4IpQhaOn1mPxc0z9Xe+i46Om1HiBSkQb84BVwJGo9IlmzNTF6AVTOBsWEuTtdE1o+7SrNjFGs6lTnV+/vXgHHJxw9tQSPe9NcZG9r0B1EprVh4pCvy5TJNxvPPnGdzsnNAa+A4/Sg11Le4wirl45vQZNPLshxOTWQr962kW7IkCFxRTb8d6+AI0xpgwXuT9r7RXKdWQGV5w477BC4JiFsMSVzDBn9/LXXXhsR/GR6lwcqF9nm5OaAV8DZAuk7TZmK9WF8XRW2VRhJkOCxUfOHd2lSR7F5uLZjrqnfxk/zxE+uGBerNGVkndYr4AB30EEHhdZU9s1Tp07NrB36KDJTetqrNF2VRTjEGYP2oJcvxQnDlV+1vnkFnEZw5aVcf5me9S1KPhvrclDIAnBmHG3zP+CAAwwX8Tel7Z93wLU7cqkuSaV2Bn32nM6G04RPYubiVxRkR7ZhZBQ0ep9++qnPIjPLyzvgN9xwQ4gx6L6TTo2kbRl+6Jb59skvK/gk9AuchSu0hcQwRNwkx0yf9SonL++A429mGc8TDZhvAGRD77vvvlB5lOn7FweYsvGUdR1WlG2lQzDtYzTi6FQtknfA+V0TzQSOC2dFdCZZHmG2clkRAihn4PSxZF2HWhXuvAPOTf+y8fT6p59+Oiv+B6ZSWR5h7oXLmvC2PemkkwKpvdBUX0vCnXfAXSOOaTcrcl024NLfZ1U+e3NundDnzXUnrBXhzjvgrhsOkdyzItZrzdw4j5is6kC+KIs4816scFfq6RlfdfcOODZtbarM0pihfd0Bf8KECb74U1I+SOfFCHfsXFynW0sqrMzI3gGnHvraLJQvWUmtO+64Y2iEw8xCp1nK5FVJyZKEu3IPRJZUgZjImQB+0003RfasrksCYupU9Gf293o6x/GhlkgLdwh4+kqUStY3E8BRPmg1JGfIUU/6In5SQzs+sJRw4V4tkhXucOLQbl+VrG8mgNMg/UMyjET03r5OfnDIkOlbjnAu3acj1DKhpq0mZQI4DeJXdPURIaYzHxfjs83TjpAAP3z48GryskmUnRngtJ47WeQIJIyDA3evlvPzTswcqG5dv17EzYrS67VJcL8KlcwUcG5wiNuXAhC3RBQ7xeGKzKlR3YF459qt3GmxuN6TKeBUgfPf+oCCBY2RipMjv4mifc1JS2fA0QArlD6EaPPgCpBqSr3Fsbl2YmUOOE2dOHFi8HujSTpnVJP8JCQ/XIfGir08s4MF1vVkJ1ANrVrtwFd6TSoCONXCFwxHRRdw5Xzj8l0OIRa7JJTOmvpMUTHAYR+OipwscV26VyzoSP54uRS6KqQ+4UrfqooCbqsL8KgXmZK13t0FPEsB9mU8YnOgLRfLe1YFcFtVHAAxp3JJDz+dwUFBJG722DgYcE8Ll/fxA+vopmvZdci2qdafVQW81plTj/XLAa9HVBPalAOewJx6/FcOeD2imtCmHPAE5tTjv3LA6xHVhDblgCcwpx7/lQNej6gmtCkHPIE59fiv/wFrPhwT3hzWRQAAAABJRU5ErkJggg==;" vertex="1" parent="1">
          <mxGeometry x="289" y="258.3" width="35.32" height="28.2" as="geometry" />
        </mxCell>
        <mxCell id="Mh07rbQPcgnBI5IKcRmm-14" value="" style="shape=image;verticalLabelPosition=bottom;labelBackgroundColor=default;verticalAlign=top;aspect=fixed;imageAspect=0;image=data:image/png,iVBORw0KGgoAAAANSUhEUgAAAHwAAABjCAYAAABZnmTwAAAQe0lEQVR4Ae2dB+wVxRPHsWCl2BVEsSuJWAklAcGusfdeYosKYjChKhYCdkVFhdhb7ApqbAhqxN7BCnaQonQRFCz7z+f+WTM3t3ev3N577/feTfLL7d1v63y3zM7M7mtmcmooDjRrqNbmjTU54A3WCXLAc8AbjAMN1tx8hOeANxgHGqy5+QjPAW8wDjRYc/MRngNeeQ78+++/Zv78+WbKlCnmySefNAMHDjT777+/2Xbbbc36669vVlttNdOiRQuz6aabmp122smcfPLJ5pprrjGvv/66+e6778yff/5Z+Uo30RKrPsK//vprc8IJJ5iNN97YrLXWWmallVYyzZo1K+pvlVVWMa1btzbt27c3I0aMML/99lsThaFy1a4K4H/88Ye5++67TY8ePQygFQtwoXitWrUyZ5xxhnnrrbcqx8EmVlJFAf/nn3/Mxx9/bNq2besN5LhOcMQRRwTLRBPDI/PqVgxw1ujjjjsuWIvjQJLfW7ZsaXbbbTez7777miOPPNIceuihplevXmbrrbc2q666asEOw9LAVD9q1ChDR8vp/xyoCOCM6p133jkWpJVXXtm0adPG7L333oEw9uWXXyaCxFr98ssvm/PPPz/Id+21147Nm86BELhgwYIcc2Oyt5ZNmjTJrLvuurGAbLDBBubRRx818+bNM3///XfJoCxbtsxMnz7dnH322bECH6N9zz33NH/99VfJ+ddbgkxH+J133mmaN28eARsA2HLdeuutZunSpd54isR/1llnmTXXXDNSJstFx44dzffff++tvKaYUWaAM7JdYCOVd+3a1SxcuDAzfr344ouBrODa4nXp0sUwKzQqZQI4a7ZrGgeAW265peDUSmd49tlnzeWXXx6M2KOOOipQtlx44YVB+o8++sigrEmiGTNmBDKBFARteL/99qsK6GxHP//886RqZ/4/74AjjbsENDRlDzzwQGyDFi9ebF544QVzzDHHOGcGC5Z9brLJJmbAgAFm8uTJZsWKFc58GclszxAKbTqevI8cObJgp3FmWsZHhMyxY8eaXXbZxVDvaiqIvALO9ufYY48NMRcGM7IfeuihWAY/9dRTgZRezHZLAkcY7RxrM+u3i37//fdAwaPTURaSftZ0//33Byph2bYxY8ZkXWxs/l4Bf+edd4zeIrFmM427aObMmYbp2oe2DRXrxRdf7NSrA3r37t0jHZFvWezRFy1aZO644w6z++67O3cOu+66a2znd/HJ5zdvgDN9brTRRiGmMrIR0FzboR9++CEY1XrkyXemXgwna6yxRvCHEOgSxGSaww8/3LBWanr//fedSwVTuy/CiPPqq68W1CTSwR977DFfxZaUjzfA77rrrhDYgMDWyyWNszVCCyaBsmEA3W677cywYcOCKRcB7YsvvgiEnbfffjtg1Omnnx6ZSWx6nsgBLnr44Ycjs8l6661nZs+e7Ype9DeAvu2224KlpVCH7NChg3n88certo57AxxDiGQ6YdSamlCStGvXLhIXRm2zzTbm9ttvd84IOp9ff/01ULYAmC6X9zPPPDMizC1fvtx07tw5FJ9ZBPmiHJLCWBLQlAHQ119/fVFtK6cuxabxAjh2bL0OY8d2KVUYfS6A+F6O+hMpHdOqzpP6sLXT9Mgjj0TiduvWTUcr+O4SxnQdeN98883N888/b5AjaoFSA85+GMFLNpYejbpUk2tKJd0ll1yio5b0jloWhYqsA+Ett9wy0olQ3+pRzuh87733CpZZSBiT5SOwIbhVcwvmalBqwGG2HmEYQvguCWZpsyiMjltvZdpiwnPmzDHrrLNOBPT+/ftHktPx9BSMISaO6CTFCmMonJhFapVSA850zl5Y9u599tknst156aWXImZN1uxypvE4ZjJ1rr766qG6YE5FqSPp22+/NThLyDp36tTJsMa7CLlDL1kyLWErjOmyXPlV81tqwJ944onIaMHfTBM2bc2kuP25TlvsO1tDreVD4fHhhx+GsiDeFltsEaoP/nJoCeNo0KBBkXbWkjAWV2/9PTXg2Jo1kNizJdHr2U/LeFtttVUmEutzzz0XKocyzzvvPFmdIHzqqaeG4rHX//nnnyPx7AfaQKewbag1YczWs9AzNeB4l1om8MRTRdu1n3nmmVAc4l122WWF6lbW/xEiN9tss1B5yBRao4ZAJevNmv7mm2/Glkm+F1xwQaA9q0VhLLbi6h+pAWcdlozDLUkTShQZh6kwSz32wQcfHCqPshHqJGHRk3UijP0+iQpZ6JLS1sr/UgOOx4pkHCNeE04JMg7TOxq0rKh3796h8igb4VIS2jVZJ8JXX321jFKX4dSA67X56KOPjjBKW9BYL1GXZkUYUTSYqGUloQ7VcRDM6p1SA669WlyAH3/88SHmZg24S5D84IMPQlguWbIkVCfAHzp0aChOPb6kBlybQw855JAIn3AwlKOJvbKeYiOJUnzgMIIsj/BXX30VyvHHH3+MxPFpOQsVVkMvqQHfcMMNQ4zba6+9Is3r169fKA4SMaZUDC6XXnqp+eSTTwK9uy+hqGfPnpHyGNGSxo8fH4pDp0ADV++UGnA0THI04cajialSxtFhpHa2UujkUWGmAR7dtdb84RGjibNosh7UQesPdJp6eE8N+B577BFiHMoJTWjUJHOTwmjGkOpxkCiHMMTo/PVUTYfiFIuMh6p11qxZ5RTZpNKkBpyju5JxjBR9fNel/ZJpXGGWCnzdSiEA0143yBg//fRTKBv09zgTynLRJ9S6HjzUiDJfUgOOK7FkHGEtIH322WeRONjLAUdbrWRejHb2xsVM8cRBE6bzQ07QRhF06+wUZFkcc9LauDJ5WtPJUgOOI4BkHGGsVpIQmDQQJ554YgAkzD/ssMMSz4ZfddVVMjtn+MYbb4zUg9nGNUug1tV1dhl8nAU18Y+pAX/ttdcift8uK5i2hUtBitHJTQ4XXXSR0wzJtPzKK6/Espr0V155ZQhEOtg555wTmR1++eUXo92iEPK0/T62sCb+j9SAoyLVNmiXderAAw8MAUIa1wGCcePGRQBhNOKGrNdizXuWF6sIYrnA7q1p8ODBoXrQMU455RQdrW7fUwMOUwFDTpHsg/W661J34o/mItZ87aBA/ueee64r+n/fsNJdccUVQX20HEEklhYtrNFB3njjjf/yqPdAasBxGtAuTkzXOBlIYi3V6/i9994ro4TCDz74YKgTATidoJjtmusUCjsH7XtHnjhMuPzYbWVw8GDmyOrPllOpZ2rAGVU4C8oRjhJFuy7hJGinWxs3yY8MBgCQ7iR4zpRD+I3bcu0Tw08hZQu3Vtj4WTzLaUuaNKkBp3DtvsTBQY4RSXJN/WyZtLOETDN37tzI7IGDRakKErR3WlADvL59+8rinOEccAdbrrvuutAoYFRqt19OoOj1E7Vskr82+2KMMXJksTfn7HmxhDzgAptdA86JhSgH3MEhJHUJCmG9d0aIY22X8ZCkOUGSRNwSIdPQmQp5ptj8WO8BVi8LzEBxAqNNa5854JYT4sm0rM2kuCpr6tOnTwg81vRvvvlGRwu9u7R0nAsvROyrdQej41DmzTffXLRWDUcNdA1Z/RVqh+//e1nDqRRXYsqRiOpSqyq5VlPGIew6oSIbyZSvRyiHCZMIVSqnVnVZaN70zJOUTz3+zxvgeLpoBmvFB6MOpst4OEcUItZtmcblVSPz4LSJjG/DXBmStAWTedRr2Bvg+INZxtonl+tokr7dxNt+++11lNA7BxJtfvZ52mmnheLIF86Ba80f6RpJmyb5ocPeAL/nnnsiwLBWauK+NAscT0a86wy5TccaKuMTdp0XIz5KIH2ihPicU28E06flWdLTG+A48WtgcBfWhEFDx2NUxhFnt2V81nMu5nURFi+9ZLAVbPS72SSvvAGOo78Wrlw+6nrPDphJB/KxcUvAOdSHIkUT8oG+kI/6NIrZU/Mj7t0b4OyzOW8lwcGLRBO2chmHMF4zLkLa5gIcGR9Qp02bFopO2fqwA2mws7vulwklbrAXb4DDNy66l+Cgq9YmUE58aKGKeHiMStco1lxs3HrW4LoQ7cGCYKfvjGG/rQ8fNBi2zuZ6BXz06NEhwAH/3XffjRTsOijA1otzaXi4IpQhaOn1mPxc0z9Xe+i46Om1HiBSkQb84BVwJGo9IlmzNTF6AVTOBsWEuTtdE1o+7SrNjFGs6lTnV+/vXgHHJxw9tQSPe9NcZG9r0B1EprVh4pCvy5TJNxvPPnGdzsnNAa+A4/Sg11Le4wirl45vQZNPLshxOTWQr962kW7IkCFxRTb8d6+AI0xpgwXuT9r7RXKdWQGV5w477BC4JiFsMSVzDBn9/LXXXhsR/GR6lwcqF9nm5OaAV8DZAuk7TZmK9WF8XRW2VRhJkOCxUfOHd2lSR7F5uLZjrqnfxk/zxE+uGBerNGVkndYr4AB30EEHhdZU9s1Tp07NrB36KDJTetqrNF2VRTjEGYP2oJcvxQnDlV+1vnkFnEZw5aVcf5me9S1KPhvrclDIAnBmHG3zP+CAAwwX8Tel7Z93wLU7cqkuSaV2Bn32nM6G04RPYubiVxRkR7ZhZBQ0ep9++qnPIjPLyzvgN9xwQ4gx6L6TTo2kbRl+6Jb59skvK/gk9AuchSu0hcQwRNwkx0yf9SonL++A429mGc8TDZhvAGRD77vvvlB5lOn7FweYsvGUdR1WlG2lQzDtYzTi6FQtknfA+V0TzQSOC2dFdCZZHmG2clkRAihn4PSxZF2HWhXuvAPOTf+y8fT6p59+Oiv+B6ZSWR5h7oXLmvC2PemkkwKpvdBUX0vCnXfAXSOOaTcrcl024NLfZ1U+e3NundDnzXUnrBXhzjvgrhsOkdyzItZrzdw4j5is6kC+KIs4816scFfq6RlfdfcOODZtbarM0pihfd0Bf8KECb74U1I+SOfFCHfsXFynW0sqrMzI3gGnHvraLJQvWUmtO+64Y2iEw8xCp1nK5FVJyZKEu3IPRJZUgZjImQB+0003RfasrksCYupU9Gf293o6x/GhlkgLdwh4+kqUStY3E8BRPmg1JGfIUU/6In5SQzs+sJRw4V4tkhXucOLQbl+VrG8mgNMg/UMyjET03r5OfnDIkOlbjnAu3acj1DKhpq0mZQI4DeJXdPURIaYzHxfjs83TjpAAP3z48GryskmUnRngtJ47WeQIJIyDA3evlvPzTswcqG5dv17EzYrS67VJcL8KlcwUcG5wiNuXAhC3RBQ7xeGKzKlR3YF459qt3GmxuN6TKeBUgfPf+oCCBY2RipMjv4mifc1JS2fA0QArlD6EaPPgCpBqSr3Fsbl2YmUOOE2dOHFi8HujSTpnVJP8JCQ/XIfGir08s4MF1vVkJ1ANrVrtwFd6TSoCONXCFwxHRRdw5Xzj8l0OIRa7JJTOmvpMUTHAYR+OipwscV26VyzoSP54uRS6KqQ+4UrfqooCbqsL8KgXmZK13t0FPEsB9mU8YnOgLRfLe1YFcFtVHAAxp3JJDz+dwUFBJG722DgYcE8Ll/fxA+vopmvZdci2qdafVQW81plTj/XLAa9HVBPalAOewJx6/FcOeD2imtCmHPAE5tTjv3LA6xHVhDblgCcwpx7/lQNej6gmtCkHPIE59fiv/wFrPhwT3hzWRQAAAABJRU5ErkJggg==;" vertex="1" parent="1">
          <mxGeometry x="629" y="158.8" width="35.32" height="28.2" as="geometry" />
        </mxCell>
        <mxCell id="Mh07rbQPcgnBI5IKcRmm-16" value="" style="shape=image;verticalLabelPosition=bottom;labelBackgroundColor=default;verticalAlign=top;aspect=fixed;imageAspect=0;image=data:image/png,iVBORw0KGgoAAAANSUhEUgAAAIUAAAApCAYAAAAbBOqpAAAOD0lEQVR4Ae2bCVQVV7aGC1BBBGSIaAQZFVFxxlnbGHwaOs5Mjji3OLSGp6LilDjGVolJjAbhtXb0CUpQnBVng4qIE4hgVBQBAbWdFbnA/d6qqsvl6iVIbPWRrFtrsarqnF3n7P3v/+y9z7kLAd2lQ+A1BITX3nWvOgTQkUJHAi0EdKTQgkTXoCOFjgNaCOhIoQWJrkFHCh0HtBDQkUILEl2DjhQ6DmghoCOFFiS6Bh0pdBzQQkBHCi1IdA06Uug4oIWAjhRakOgadKTQcUALgXJIoaSwUEG+QkFhoVLrQ5RKFIoCFIWFFGn3UlxchKKgAIWiiGKlkqJCBQpFIUXFZYz12vfFRYUoxHmLiniz9Gsfv/Vr+TMplcUSHqJe5f4Vfkid39rYcj8shxTP2f/Df9PA1o4W7fzZmfRIY6CnHA0Pws3JAQdXdwYv2c8Ljd7inNPMGt4ea8dWDFlxlEfZx5jQrxW1Gv2FmVFJGpJlPT5k67zPaexQG8/Ab7n5rCyZd9j2Ioe43dHsOp5GcTnD5pwMpUenptR3aYSbm5v2X5MmNGxQn2aDFxKfU1DOSJW/qxxSQGJ4IB8LAoJgzIyoy6XWPEnl64F2CFKfgK37FC4/L+3O++Vb/mImflcNr/9JhmtRtLMW3wV6ffNLqWCZT/f4fqiNJFvn86lceVym0LtpfHGLsBl9MK/lSsBPF8sd8+aOIIxU9pbYXebdeRD7Ml6WO1Zl7yyXFI8ubaKfi+hMIzwW71GniYdJUfjZV1WTooqjO+EXnqpsVXJu3XScBAEDy9ZsSHwMz28RvWEVX61Yy95LOW/A5DFhYxtKY9f3DibtyRvEX+tWKstPA5rihVf+F/e6on31mLQlVbNL6/lx+knWrvqahYuXsnL5Mib5tMNAJIlFIwYFzmflyn+weNFClv0US6Zm2NQaqSINFbehIqP9XplyScH9c0zp5SA5yLVHCJmq0c9vnoq1noBQz45GFsYIejaMDk1Q5f9HbJz5ufSNRdMpJDwE7p3hq7/70KXPcL458KuGjgWkx29nXoAfHh49GDPrB+JSkvhhnGuZpHhw4zRr543Ds2M3+o2cR+yVO9w8EcGQdm359K9fE5+Vrx47/24qkd/MwLd3D7p07cv44BBiL2ZSKEkoubY/HN/mzhgbCgh6RtRxaYGH5xR2Xfq3eoySh7KIdmXLZKqKpHAawI5bGolHcY3vRvejTXM/QjYcZVtYEH26dcUncBVnb8vh9PGtM2xYGohX90/p3nMgkxeHEXc9r2Q69f1JZiIRK4Pw6+GBR3dvJi0I5Uhq9nuvs8onBffZPLEX1QQBK1cvjuaK+j5j49/dJKd1GDmLkMndpbDaYfj3ZEndKcztby4TadI/uS+2XY2ki724Io3xWn1KZbSCsxFBdKpXGnHEcGzRsC3tW1pJ37v4lEaKnPhIBrnboacRwi3cPBk/2hdLqW0gMWky6IVZR5jR10VeyRryJo7tCd5yTpo/cfXfMFT1SSteem7AiljJCpWOv31L2BAgk8KhN5GXRearrtxjjLA3RhD0cWzYjFpSGhUQ3EdwKEvJ87RtDO78sWSfZvoxb9mb72PTS0bh8dW9DO9mqyVXo7EHS2NSUKgl3/3DG0gBF8PH0UAErE5TQs4+gxfnGd9EdLoVE348y41jy3E2EDBoO4zYu0DmPgbbyClnYvhpidXKq1H0bGyIINRm6LoEyYqX1w8yyKWaZLSZYxuGTpzJnKDJ9Gtf6nhX32Cuiou/4CqLfRrIAJk40Xt0IHNmT8PboxnGBvpSu6HZSPZcF6F6yE9Tu0ptJo6f8Lfp81m8IJjhPVqiL9rh4M2uKw/4d+oJlvh7UqemGClq0uLz4QR/GcaZ9IrlK01SRGiSIu8XApqUONOEVj0HExg8n/UHL/Ps0W1WDJAXVB03T6bMWcjCedMY0FaOxrU6BnBezMLKHNb4t5dssKzvwcTgBSz6cgY+HZ2lthrNhnAw8/0Vs28kxZPEH+jsKDrZjoCI6+Sn/YvmlgJCrdaEihbkHcLfXnRMG1YdvE1O/DqaiuDrdyI0Tq4fitJKSTEs7KxEistbZ2AhylWtz/SN8aqwDs9SIuhXz0wy3sV3NunF8CI5ks+sRB308Zy5iZIAX5BxnAmfWkuyhqYj2ZchkjIaLzdR1pLxa05QklDuJ26mTwOxvQYBYafl5ZWxnS5O+ggGTgTGlK7SisRnTVK8EikkUsiFsnGrQcTekBOWOOG9U6tpaS4g1HBjWkSyrAOQvi9ExtTUheUnn1CUFkHXuvoIRg0ZGy4vIlH49qHVdBQXXFUbvojWTMPqod7JwxtJwf1TBLSphyBUpX9QJAfXj8NaEKjdeiRnxUVVfJvVI+0RBANGLt3OnnUT5Cq99WgOq9hcmKpBinA5fO9f3kFyptBqOPsyNXIyDwkbpSo0feaSUQzZe5bTSCRQldasPqpZqBawN2SwNE4101GIkf9+QghdpUhVlY9s7HC0t6OenQMOdnWoLo4hCDhM34SYaJSpm+ngoI+g78DEzaVOqgiyalI4vpY+8uLUkaLdmEVkaxziJG8Zhq2YTvRqYGVrj6NdPVk321oyFoIpg9dfJuPYdBpJuzVjLGzscbSvh61og621HO2EKnRZsK8i3K2IKVoybyYFD9g0oh1VBIEmHj3w79xG2mq2GxuBHGiLOP3PLzAWBGz6jmDiQDnEtR61nJIIpyiDFHuXtJbrg05jiL2jSYoCouc1kYx39p7L7SLI2L4IZymqdCY8TsxRJVchh3+cJJPCRCRFMXmnV9JZBNTAhHb/1Z+Bfn54e3nh7TuQYf4jGTpyNEE/xyMG38IUFSkM/gNSvF5TSJGirqTTX7/4Ua6pVOpe3DwA2xoCgokNnT29GOTrg5eXFz5+gxnhP4wh46ay4XQe1/aPw1WMxsYf065Hfwb5lcgNYri/P0PGTGbFzqRyz1VKEHqbewVIAefWD8PKSKCKoTEmBnoIZnZM2Fq6hbufsJGeYng3NcfKQg9BsGbYV7HqA61XSBGWKOkZt2agTArrnqw/r3EwVnSdhd3FyCPQwHcOt5Rw7+hq3KVVXpvpkZqHXw/41/QuMilMR3EgEx5d+I6uHwsI1e1YdEi7otcEKT95Ex0c9BAMHJkSfU2z643P6khRJinElFYdn1m7VAtHHu7X7ZOoZyQg1P2E0PMaBzuvzZYVG4yrmGasO/KPEyXJ8jWh9/haIVLcjw+lhaWRBL7oLEvn/kSrKn1JtwcXmNZLzqNSRW3VkQV7bqnVfoUU6+SaIvf4j7QQARL0cB86n4PJmeRlprJ12TBsDOQw7+o3G6l2zDnGqFbyLsW2yyi2nrrG3bxMDoQF4SbVGgJGZqPYe1MJT04xupscjh27jSYyLo3c3CxORX2Lb6emNO/ox8aT2ZJuL5M30tZRrIfqMGjFTm7mZPHwWcUKuPJJURtBMMR75o5XSJF/JRpPR3FnIuA2YCqHkzK4e+c6B8Jm4Nm2IR36juGYqFrWIfzcLCW5+p8FsOdcOnk5Nzm0fg59O7jSpudgopM1djxqpN/NQ4VIUXz3NJMby0qKBtX3+YZrrxzaPWH7XG/MVTnbsr0Pu0UHqS5F6lZ6NBJ3GrUYGnpGbn15h9AJXdTbxhpmFpibVkdPMMTMykICxMVnFmnSMfcLjoSMUZ2uClQzqYmZqTGmNWvh6CRX7kamI9n9q1xWJmwIpEFVmVgGxjWx+sgKYxXRbHvN5myuvKEruh7Dpyon6VUzxOwja5btSilRu9x7wvoAWXf7XmjtPhqLpKyG14xXSQFP2L3UBzMVTkZmFlhZmUtbfhFX9zFryJRgU3B09SjVVlvA0MQcKysL9Rba1W8ZKe/x+L9CpKAwl7VjVFtCQcDruyNa++T0XXNpbiI7omXvJdzQKBMUVyL5xEnsM8N3jaryB55nJ/Bt4ACczQ3kKGRqR9+xS1ga5C292/TSOObOv0PUykm0dVKR07wh478MY+2SAEnW0HI4e6+pkCq6x741M/BoYasGUs/Mls/GLOJEusa5uSKXrcH+uEopT0x/Dizfd71cMpR0xoePlnWu05NNSQ9KmiH3OKOd5d1T76nb0JhNklE+vcHGRePo3MhGVTQKGNVuhO+0UJLvlS4kXmYS8fVEujWzl+o5kTSGtVzoM3EVCVnv85SCiv7bYBHZV08S/XMU0dt3kHZHey9f+PgWJw//TGTkbk6du/MKaYqfZnPy8E4itu8l8aYGgCJMBY9IOXWIbTE7OBx/mUcF8CQ7iZ3bthB7JoWn0o5OwcuXz3nxOJdLp46xf/9hEq9Lx2LsWzFEck7VtpM5mftq6L+bfonjB3YTs20bh08nca+s4+f8e1yOP0RM1A4OxV0g+1HFAH+YcZEd26KIOnCarCca37y8z8XDe4mK3MmZlBz1VruUNeKTgpyrFzi8cwcxO3bxy7lfearepSjFH6BVVyF3rydxZNdOYmJ2cCIxTcKnpPd93SsWKcqcXa25uLkrU+I3G3+nePHdBGYPceKj2k607z6RrXEp3M5I58yetQx0l1ONtf9Kbvx27fabqrxNx+9U/22m+H/95j8gxQfUOz+DkLEt5HAt5WM99PXlk0wxrArV7Zmz+Zz6B7sPqNmfcqo/BinEX1wyEwmdP45urZ2xkHYtAoJZXZp7DGT55mM8fDVz/Cmd9aGM+sOQQgKkOJ+cm6lcOHuSuLg4Tp1PJj235Cf7DwXZn3+ePxYp/vz+qBQW6khRKdxQuZTQkaJy+aNSaKMjRaVwQ+VSQkeKyuWPSqGNjhSVwg2VSwkdKSqXPyqFNv8HZe4eev/SqTwAAAAASUVORK5CYII=;" vertex="1" parent="1">
          <mxGeometry x="454.9" y="8" width="82.2" height="25.34" as="geometry" />
        </mxCell>
        <mxCell id="Mh07rbQPcgnBI5IKcRmm-19" style="edgeStyle=orthogonalEdgeStyle;rounded=0;orthogonalLoop=1;jettySize=auto;html=1;exitX=0.5;exitY=1;exitDx=0;exitDy=0;entryX=0.56;entryY=0.04;entryDx=0;entryDy=0;entryPerimeter=0;curved=1;" edge="1" parent="1" source="Mh07rbQPcgnBI5IKcRmm-18" target="Mh07rbQPcgnBI5IKcRmm-7">
          <mxGeometry relative="1" as="geometry" />
        </mxCell>
        <mxCell id="Mh07rbQPcgnBI5IKcRmm-18" value="" style="rounded=1;whiteSpace=wrap;html=1;" vertex="1" parent="1">
          <mxGeometry x="433" y="37" width="120" height="60" as="geometry" />
        </mxCell>
        <mxCell id="Mh07rbQPcgnBI5IKcRmm-22" value="" style="shape=image;verticalLabelPosition=bottom;labelBackgroundColor=default;verticalAlign=top;aspect=fixed;imageAspect=0;image=data:image/png,iVBORw0KGgoAAAANSUhEUgAAAFIAAABVCAYAAADaKbMjAAAP2UlEQVR4Ae3bBYwjx7YG4A0zMzMzMzMzJxsmhZkVZiYpoDAzMzMzM0dhZqqrr6TT6uvMztq9PfbTuy7JY4+ru7rqrwP/OafcL3VbLQj0q2WU7iCpC2RNQtAFsgtkTQjUNExXIrtA1oRATcN0JbILZE0I1DRMVyK7QNaEQE3DdCWyC2RNCNQ0TFciu0DWhEBNw1SWyK+//jpddNFFab/99kv3339/+u6772qaUnuG+e2339K9996b9t5773TJJZekjz76aJAeXAnIP/74I5177rlphhlmSMMMM0zaZJNN0ksvvTRIE2n3za+//nrabrvt0uCDD57XccEFFwzSFCoB+cEHH6Qlllgi9evXLwO54IILpkceeaSYyN9//528/vnnn+K7Tn+IOcU8Hn744bTWWmvlNVjHhhtumN58883Kc24ZyG+//TZdccUVaZpppsmTGHPMMdPBBx+cgKv9+eef6bPPPktffvlloj6dBtPz//rrrzynzz//PM/PPJmio446qgBy5plnTmeccUaibVVay0C+/fbbaYcddkijjz56nsQcc8yRnnzyyfxswD322GNpl112yWpz7bXXpl9++aXKvGq7B2B33nln2mmnnfLr1ltvTb/++mse/6677kpTTz11XscII4yQtthii8T2V2ktAwmohRdeOA0xxBBpxBFHTNtss0368ccf87PfeOONDOLQQw+dJ7f99tunb775psq8arvnww8/TPvvv38aeeSR85zWX3/99PHHH+fx9e26665prLHGyn1LLrlkYjuraFHLQNrRKaaYIj949tlnT4z0Tz/9lCemjwNiwEns7rvvXtmbWwwzQcqpW5XFmRTQDj/88DTZZJPlOU877bTpoYceyvMlmTfccEOafvrpc98ss8ySHnjggUJi80VN/mkJSAb7wgsvLHZ3lVVWSU888URhV0466aQ05JBD5klReZ4dENqLL76Yzj///HTzzTenTz/9tNfpkYpTTz01S/fmm2+edtxxx3TiiSeml19+udf7qOXtt9+eTjnllPTaa6/la3/++edEhWebbbY8Lzb9kEMOKaTymWeeSYssskjum3jiidNZZ52V7XuvD+qhsyUgAXDQQQcVYG299dYFKBbPxvCAXhtvvHFWE+D/8MMP6eijj052fKmllkr33HNPD1NJ6fvvv0833nhjHofkMB3GGm644bJz22ijjdKVV16Zvvjiix7vB+Kaa66ZZpxxxnTEEUckqqtxkDbdWMMOO2wG7sEHH8x97733Xr5H36ijjpqYo7feeqvH8Xv7siUgH3/88cTGhNQhsyFx11xzTUKDTMjLQjRAokbLLbdc/n6wwQbLRL5xUsAh7XPNNVcxhnGGGmqo5J4Y12acfvrpPYJJascbb7x87dxzz51uu+224jH77LNPsTFjjz12uuyyy3IfKSYQww8/fH7W4osvnkhpq60lIG+55Za02GKLZUfDoRx22GHF86ji5JNPnhdh188777zch3qIHEK1JphggsSbN7abbrop3x+bBDx2bb755iuoVoA555xzZslsjKYuvfTSpM+9ABV5RTMHNt0YHA+qo1H9vfbaq3A4aB2O2WprCciLL764cCbUjgREwyU5GI7GZACjcRSkc9xxx819888//79U+5133km77bZbIXWTTjpptovXXXddtsHs6r777pt8DwjP7t+//79sJkexxhprFOOw2dHY8lVXXTX32Wimhrb8/vvv6fjjj09TTTVV7htllFHS3XffHbc1/d4SkGeeeWaacMIJMyDUg2HWTMiu4mIklXpYlEb1cTjf619nnXXSU089lfviD2/P4JMktGqrrbZK7777bnTn908++STzV84CmGwoJ1Ju7DQbF5LLnkdjL42rj9QfeOCBmbbZaNoT0qqPrW21tQQk9cW5SN0kk0ySqY8HmgyqwymIvVdeeeVMzPUBcsstt8wLoFK88AsvvPBf86R20003XR6XZPD2jc0z2LyFFlooj8VEkNhye//999Oee+5ZAOmz+1AnDmfnnXfOfTYLt2QaUKzLL788zTvvvLmPTb7jjjvKwzb1uSUg0YoxxhgjL5j9ChtEPagmlfFabbXVskqaASCBRxKoDVBRoXIzDgBt0EwzzZTYusYGELaL1zfWOOOMkzi4ciN1HGBIpDnhioDECJBvfZ4jawVcQAp52WJ9bQGSt7QAExl//PELyTGZPfbYo5DIFVZYIT366KN5jYDcdttts9qONNJI2bY999xz5fVnxzHrrLPmcan/kUce+V/98Q+bHMEAzhd2OPrZ2gALKMCKJvYX2vqe+h5wwAEZXBvEg88zzzy5j7T2uWqzJVNOOWVeMOk67bTTYp5FGGaSqEfYL9JqQa5nJ9GgcqbIAGjVuuuuW9CqpZdeOjskcb0ECPsoGgnizIQI54Sr5Ya24K/A8jrmmGOKbgRdhsf3zI9oxyYD8uyzz84cN/r6XLWvvvrqzPNIpMUce+yxxUR5QZSDwyC1iLNGWtnWkCRkuczvXEPtTj755MzlYjGu46SOO+64LGUkBtfTz+FxJEG4YxLoGYBd41rOMRpwIvVH6sOjA9Pcg7pxZhK+rbaWbKQHrLjiitmzUgGeLxoHIRVlEV7A03h0XnmBBRYo+hDvxoZysL9xv3f/TzTRRP/6Xjwvo4MDltsJJ5yQN9G9NMfGR9PHHOjj9M4555zcZQy2NLJZNjDMUtzbzHtLQMrukBIgmpDPkd3hCFZfffUCCB6SVwSkXKV4WQjG2zc6CRMlTdTfuMwDp+VzvHBH0u5/1AepJ8nlFjQGZxWuPv/887mbVmy66abF2BgCbqqJqGT4ORnPFEo2OsPyMwb0uSUgZXnYxVjkBhtsUMTTQGPAY+HLLLNMNtoWoQHKznMkjckH3pOZAKD7SZPs9fLLL58WXXTRTKfYNw5OP6DQLXFyubGDVFYJgRZEVsr3Un/utVlAjdKIrHjE4dRaKIlGtdpaAtLg1AUZNyn2SAKCndHQGPZHnyhERBOJXe/iWhIc18dkX3311bz4ABKIpF9BShrsq6++ymUAbMDYnmHxjXyUY7OhPHSovXtJaqTKbIbUX+RQBQdhdsxZ9BZaFvNr5r1lIFUMURULYr8OPfTQAiyZ8pVWWin36d9ss82amhT7SILDZJRpSyxCzM4mR1JC7G4uA2uklvRGYldixcZpQAcqDTBfcTomYENabS0DyX4I8yLFhapEvYbE4WTiaSEXdW20Yz1NkCRL+WMDFkWCGpvFsWsR2WAGjZFN4z3+R5+EsuYEKFw0pBGgaBd+C0hCEGvpaazevmsZSDlJdIE0hlQy/KFK1MouX3XVVdnWNJPZ5lHRFc4ERWHfGhtbaxPDoZFe9KbRTDTex9lRVUllERPnQro1uc/RRhstrwND4DzlTqu0loEkGVRYKAdI9mrttddOEa2YJMmkNshuM01mx1heJNkm9NSoMhMQ13JezSRhgclWAtRnjeSVw0k8Vczd7Jwb59cykAbgDdEb6k0decTGaKXxQT39b9IWtN566xXgsGVidVIe1T6bx6lhCVGoAqbnqrlUaZiDhG5sitCSADSjQT09rxKQBsIbpaxICIcjnGu12RD2UX0nFhTvbBrJFD+zjUoI4dXjGqAPKC4f2FzYTqEhG2/sKmFh+RmVgSQlPCK7ZSfD7pQHH9hnqiahEVFFEG5AkXZq3r9//4T2CEkDwPK7cjA7WUWSPN/88cbgnAOb84D6KwNpQJMPwj2gB/T2vY0IDsfZ8KqcTdARSQ4gh1flEOQ6OZwAXdab9606jyoC0NOaBgnIngZs9jsLkEWPZIbQUblC+BiJ4LLkARWIUlwSIhFdcRL+D+Lf7PPrvq5jQKJJ+F3QKGosKSJkU7Yog+gz4KgxL63+Anjfe1enFmZ2snUMSE4E7QkvLNwUrikPBLiAosKYAd6I84mFlSaWXXbZnN+k9uX6eqfA7BiQkrDlqEJGBg2KvCAQ2U8kOZIKIYFKwiSYlAKaM7IxnWwdAxIvRHvYPtIWNg9YUlpiYhGSxAX6gzNGvOwakhixudg/TsR1CsyOAclB8MLhfYHjBVDlCAWpcCDeAc9bR84yrvfOFAj/IobuBJgdA1LesAxGfBa9AK0x5pX8EIY6/xPXxjuKJHHcTLjYVyB3BEi8T4otgPDO+yLnilxlcl3+DAQOCWjKtxHpKGaJ/avUWuoCtiNAqu9EojXAVFe+/vrrm1JPFUqOqGxXmQg2tVOtI0DGiYcA0Tt7KYs0oMJTSCb1FuP3ZCuVWCOd125A2w4kh1DO9pTBZOucG5IEacwmUWmlWXWcKHWU7/UZYY8Dpv+vgZRckCSInCLqo7yr8M/OBTCy36RTSVdIKCnrXGacRnMd6uP4CppkHN8ZV5GtE62tEsnzKg84iWHhClFOWfDSSLeDUeUsj0QGWxrnv90DcAcESK5QEe0JgJH6OPfYbjDbCqTfuTiLGNkdp3NfeeWVvGbURegnN8heAo0DQc6FiP4HsrqKHGbcd9999+WcIqlkNxXIwp62E8y2AhlnFC2YZCmilX8DqKAvbIySLvDKL3SH5JYPgkooCyMj1eZgQCdaW4GU2Ylz5o6PSJsBV7Ya9XHAoEyLnMyg1mxmACrt5gCA6x1GldNUBHNowDXspAJd1GbaBWpbgWTT2DcLRqA5E2d4qGPkJQMwWSHHmFEa2R2nIIKAczTsIhqkEkjVw04aV4mi3Wm1tgHJ0Ti4RMqAxbFIhUlchDQFiGrXzmI6SSFvSZIdvJL1CXvpWnQJkee9ffadDQBw1fp0VQluG5B4oDg5ohE2smwLfeaJ/Y5RtqdRolAnxwGpv9xlORPEIYW0AlM26Omnn66KSaX72gakExhOU5QXbNG8rRyk49FO4Ko/99ZELrgl8h2/FzdO+SUBXLVM29uze+trG5CiElJYTptRcwUvtpLDifPevU1Yn3q4ExNids6FdJbH9b8xG6V6YOMOSn9bgJQSc8Y8pIazYAdxSgkIoFRpyqlCSeMojIX9ReQdnKpSa68yD/e0BUhlAPXpAFL457eAdZVCUZ1nn302h5WewVw4rdFOO9lnQDpAILPtDJD4N85vU8HysWPSyqNXfbk/Mj4O32MAJN5vFmXZgeyaqmd6mpXQPgOSNDhgL5Mj2xOVQWrnf+qII3r5TWPVl/sdaHVCDu9E3m0WNSf5wPWKE7rNAtPqdbUD6cQD2+Q3LcATmeB4pITa8doWi4Drq+vF8xuXQwsTImY3vmcpYTRzMLVVAOP62oGk0kqtDifFgv4vvPu1gmN7fdVqB5JNQmOoG0kglaIYoWG7X57rqLR5MAF9Ge3UDmTsuF9r8aRsZSdfIirzkMjoS4fTZ0AGoP8r710ga9rpLpBdIGtCoKZhuhLZBbImBGoapiuRXSBrQqCmYboS2QWyJgRqGqYrkTUB+R8mb64+i3hKqgAAAABJRU5ErkJggg==;" vertex="1" parent="1">
          <mxGeometry x="328" y="152" width="33.76" height="35" as="geometry" />
        </mxCell>
        <mxCell id="Mh07rbQPcgnBI5IKcRmm-29" value="" style="shape=image;verticalLabelPosition=bottom;labelBackgroundColor=default;verticalAlign=top;aspect=fixed;imageAspect=0;image=data:image/png,iVBORw0KGgoAAAANSUhEUgAAAFIAAABVCAYAAADaKbMjAAAP2UlEQVR4Ae3bBYwjx7YG4A0zMzMzMzMzJxsmhZkVZiYpoDAzMzMzM0dhZqqrr6TT6uvMztq9PfbTuy7JY4+ru7rqrwP/OafcL3VbLQj0q2WU7iCpC2RNQtAFsgtkTQjUNExXIrtA1oRATcN0JbILZE0I1DRMVyK7QNaEQE3DdCWyC2RNCNQ0TFciu0DWhEBNw1SWyK+//jpddNFFab/99kv3339/+u6772qaUnuG+e2339K9996b9t5773TJJZekjz76aJAeXAnIP/74I5177rlphhlmSMMMM0zaZJNN0ksvvTRIE2n3za+//nrabrvt0uCDD57XccEFFwzSFCoB+cEHH6Qlllgi9evXLwO54IILpkceeaSYyN9//528/vnnn+K7Tn+IOcU8Hn744bTWWmvlNVjHhhtumN58883Kc24ZyG+//TZdccUVaZpppsmTGHPMMdPBBx+cgKv9+eef6bPPPktffvlloj6dBtPz//rrrzynzz//PM/PPJmio446qgBy5plnTmeccUaibVVay0C+/fbbaYcddkijjz56nsQcc8yRnnzyyfxswD322GNpl112yWpz7bXXpl9++aXKvGq7B2B33nln2mmnnfLr1ltvTb/++mse/6677kpTTz11XscII4yQtthii8T2V2ktAwmohRdeOA0xxBBpxBFHTNtss0368ccf87PfeOONDOLQQw+dJ7f99tunb775psq8arvnww8/TPvvv38aeeSR85zWX3/99PHHH+fx9e26665prLHGyn1LLrlkYjuraFHLQNrRKaaYIj949tlnT4z0Tz/9lCemjwNiwEns7rvvXtmbWwwzQcqpW5XFmRTQDj/88DTZZJPlOU877bTpoYceyvMlmTfccEOafvrpc98ss8ySHnjggUJi80VN/mkJSAb7wgsvLHZ3lVVWSU888URhV0466aQ05JBD5klReZ4dENqLL76Yzj///HTzzTenTz/9tNfpkYpTTz01S/fmm2+edtxxx3TiiSeml19+udf7qOXtt9+eTjnllPTaa6/la3/++edEhWebbbY8Lzb9kEMOKaTymWeeSYssskjum3jiidNZZ52V7XuvD+qhsyUgAXDQQQcVYG299dYFKBbPxvCAXhtvvHFWE+D/8MMP6eijj052fKmllkr33HNPD1NJ6fvvv0833nhjHofkMB3GGm644bJz22ijjdKVV16Zvvjiix7vB+Kaa66ZZpxxxnTEEUckqqtxkDbdWMMOO2wG7sEHH8x97733Xr5H36ijjpqYo7feeqvH8Xv7siUgH3/88cTGhNQhsyFx11xzTUKDTMjLQjRAokbLLbdc/n6wwQbLRL5xUsAh7XPNNVcxhnGGGmqo5J4Y12acfvrpPYJJascbb7x87dxzz51uu+224jH77LNPsTFjjz12uuyyy3IfKSYQww8/fH7W4osvnkhpq60lIG+55Za02GKLZUfDoRx22GHF86ji5JNPnhdh188777zch3qIHEK1JphggsSbN7abbrop3x+bBDx2bb755iuoVoA555xzZslsjKYuvfTSpM+9ABV5RTMHNt0YHA+qo1H9vfbaq3A4aB2O2WprCciLL764cCbUjgREwyU5GI7GZACjcRSkc9xxx819888//79U+5133km77bZbIXWTTjpptovXXXddtsHs6r777pt8DwjP7t+//79sJkexxhprFOOw2dHY8lVXXTX32Wimhrb8/vvv6fjjj09TTTVV7htllFHS3XffHbc1/d4SkGeeeWaacMIJMyDUg2HWTMiu4mIklXpYlEb1cTjf619nnXXSU089lfviD2/P4JMktGqrrbZK7777bnTn908++STzV84CmGwoJ1Ju7DQbF5LLnkdjL42rj9QfeOCBmbbZaNoT0qqPrW21tQQk9cW5SN0kk0ySqY8HmgyqwymIvVdeeeVMzPUBcsstt8wLoFK88AsvvPBf86R20003XR6XZPD2jc0z2LyFFlooj8VEkNhye//999Oee+5ZAOmz+1AnDmfnnXfOfTYLt2QaUKzLL788zTvvvLmPTb7jjjvKwzb1uSUg0YoxxhgjL5j9ChtEPagmlfFabbXVskqaASCBRxKoDVBRoXIzDgBt0EwzzZTYusYGELaL1zfWOOOMkzi4ciN1HGBIpDnhioDECJBvfZ4jawVcQAp52WJ9bQGSt7QAExl//PELyTGZPfbYo5DIFVZYIT366KN5jYDcdttts9qONNJI2bY999xz5fVnxzHrrLPmcan/kUce+V/98Q+bHMEAzhd2OPrZ2gALKMCKJvYX2vqe+h5wwAEZXBvEg88zzzy5j7T2uWqzJVNOOWVeMOk67bTTYp5FGGaSqEfYL9JqQa5nJ9GgcqbIAGjVuuuuW9CqpZdeOjskcb0ECPsoGgnizIQI54Sr5Ya24K/A8jrmmGOKbgRdhsf3zI9oxyYD8uyzz84cN/r6XLWvvvrqzPNIpMUce+yxxUR5QZSDwyC1iLNGWtnWkCRkuczvXEPtTj755MzlYjGu46SOO+64LGUkBtfTz+FxJEG4YxLoGYBd41rOMRpwIvVH6sOjA9Pcg7pxZhK+rbaWbKQHrLjiitmzUgGeLxoHIRVlEV7A03h0XnmBBRYo+hDvxoZysL9xv3f/TzTRRP/6Xjwvo4MDltsJJ5yQN9G9NMfGR9PHHOjj9M4555zcZQy2NLJZNjDMUtzbzHtLQMrukBIgmpDPkd3hCFZfffUCCB6SVwSkXKV4WQjG2zc6CRMlTdTfuMwDp+VzvHBH0u5/1AepJ8nlFjQGZxWuPv/887mbVmy66abF2BgCbqqJqGT4ORnPFEo2OsPyMwb0uSUgZXnYxVjkBhtsUMTTQGPAY+HLLLNMNtoWoQHKznMkjckH3pOZAKD7SZPs9fLLL58WXXTRTKfYNw5OP6DQLXFyubGDVFYJgRZEVsr3Un/utVlAjdKIrHjE4dRaKIlGtdpaAtLg1AUZNyn2SAKCndHQGPZHnyhERBOJXe/iWhIc18dkX3311bz4ABKIpF9BShrsq6++ymUAbMDYnmHxjXyUY7OhPHSovXtJaqTKbIbUX+RQBQdhdsxZ9BZaFvNr5r1lIFUMURULYr8OPfTQAiyZ8pVWWin36d9ss82amhT7SILDZJRpSyxCzM4mR1JC7G4uA2uklvRGYldixcZpQAcqDTBfcTomYENabS0DyX4I8yLFhapEvYbE4WTiaSEXdW20Yz1NkCRL+WMDFkWCGpvFsWsR2WAGjZFN4z3+R5+EsuYEKFw0pBGgaBd+C0hCEGvpaazevmsZSDlJdIE0hlQy/KFK1MouX3XVVdnWNJPZ5lHRFc4ERWHfGhtbaxPDoZFe9KbRTDTex9lRVUllERPnQro1uc/RRhstrwND4DzlTqu0loEkGVRYKAdI9mrttddOEa2YJMmkNshuM01mx1heJNkm9NSoMhMQ13JezSRhgclWAtRnjeSVw0k8Vczd7Jwb59cykAbgDdEb6k0decTGaKXxQT39b9IWtN566xXgsGVidVIe1T6bx6lhCVGoAqbnqrlUaZiDhG5sitCSADSjQT09rxKQBsIbpaxICIcjnGu12RD2UX0nFhTvbBrJFD+zjUoI4dXjGqAPKC4f2FzYTqEhG2/sKmFh+RmVgSQlPCK7ZSfD7pQHH9hnqiahEVFFEG5AkXZq3r9//4T2CEkDwPK7cjA7WUWSPN/88cbgnAOb84D6KwNpQJMPwj2gB/T2vY0IDsfZ8KqcTdARSQ4gh1flEOQ6OZwAXdab9606jyoC0NOaBgnIngZs9jsLkEWPZIbQUblC+BiJ4LLkARWIUlwSIhFdcRL+D+Lf7PPrvq5jQKJJ+F3QKGosKSJkU7Yog+gz4KgxL63+Anjfe1enFmZ2snUMSE4E7QkvLNwUrikPBLiAosKYAd6I84mFlSaWXXbZnN+k9uX6eqfA7BiQkrDlqEJGBg2KvCAQ2U8kOZIKIYFKwiSYlAKaM7IxnWwdAxIvRHvYPtIWNg9YUlpiYhGSxAX6gzNGvOwakhixudg/TsR1CsyOAclB8MLhfYHjBVDlCAWpcCDeAc9bR84yrvfOFAj/IobuBJgdA1LesAxGfBa9AK0x5pX8EIY6/xPXxjuKJHHcTLjYVyB3BEi8T4otgPDO+yLnilxlcl3+DAQOCWjKtxHpKGaJ/avUWuoCtiNAqu9EojXAVFe+/vrrm1JPFUqOqGxXmQg2tVOtI0DGiYcA0Tt7KYs0oMJTSCb1FuP3ZCuVWCOd125A2w4kh1DO9pTBZOucG5IEacwmUWmlWXWcKHWU7/UZYY8Dpv+vgZRckCSInCLqo7yr8M/OBTCy36RTSVdIKCnrXGacRnMd6uP4CppkHN8ZV5GtE62tEsnzKg84iWHhClFOWfDSSLeDUeUsj0QGWxrnv90DcAcESK5QEe0JgJH6OPfYbjDbCqTfuTiLGNkdp3NfeeWVvGbURegnN8heAo0DQc6FiP4HsrqKHGbcd9999+WcIqlkNxXIwp62E8y2AhlnFC2YZCmilX8DqKAvbIySLvDKL3SH5JYPgkooCyMj1eZgQCdaW4GU2Ylz5o6PSJsBV7Ya9XHAoEyLnMyg1mxmACrt5gCA6x1GldNUBHNowDXspAJd1GbaBWpbgWTT2DcLRqA5E2d4qGPkJQMwWSHHmFEa2R2nIIKAczTsIhqkEkjVw04aV4mi3Wm1tgHJ0Ti4RMqAxbFIhUlchDQFiGrXzmI6SSFvSZIdvJL1CXvpWnQJkee9ffadDQBw1fp0VQluG5B4oDg5ohE2smwLfeaJ/Y5RtqdRolAnxwGpv9xlORPEIYW0AlM26Omnn66KSaX72gakExhOU5QXbNG8rRyk49FO4Ko/99ZELrgl8h2/FzdO+SUBXLVM29uze+trG5CiElJYTptRcwUvtpLDifPevU1Yn3q4ExNids6FdJbH9b8xG6V6YOMOSn9bgJQSc8Y8pIazYAdxSgkIoFRpyqlCSeMojIX9ReQdnKpSa68yD/e0BUhlAPXpAFL457eAdZVCUZ1nn302h5WewVw4rdFOO9lnQDpAILPtDJD4N85vU8HysWPSyqNXfbk/Mj4O32MAJN5vFmXZgeyaqmd6mpXQPgOSNDhgL5Mj2xOVQWrnf+qII3r5TWPVl/sdaHVCDu9E3m0WNSf5wPWKE7rNAtPqdbUD6cQD2+Q3LcATmeB4pITa8doWi4Drq+vF8xuXQwsTImY3vmcpYTRzMLVVAOP62oGk0kqtDifFgv4vvPu1gmN7fdVqB5JNQmOoG0kglaIYoWG7X57rqLR5MAF9Ge3UDmTsuF9r8aRsZSdfIirzkMjoS4fTZ0AGoP8r710ga9rpLpBdIGtCoKZhuhLZBbImBGoapiuRXSBrQqCmYboS2QWyJgRqGqYrkTUB+R8mb64+i3hKqgAAAABJRU5ErkJggg==;" vertex="1" parent="1">
          <mxGeometry x="439" y="254.5" width="33.76" height="35" as="geometry" />
        </mxCell>
      </root>
    </mxGraphModel>
  </diagram>
</mxfile>
